<svg xmlns="http://www.w3.org/2000/svg" xmlns:xlink="http://www.w3.org/1999/xlink" zoomAndPan="magnify" preserveAspectRatio="xMidYMid meet" version="1.0" viewBox="0.6 140.54 370.25 53.72"><defs><g/></defs><g fill="#000000" fill-opacity="1"><g transform="translate(-1.77166, 182.648741)"><g><path d="M 20.3125 0.640625 C 16.582031 0.640625 13.378906 -0.160156 10.703125 -1.765625 C 8.035156 -3.367188 5.976562 -5.601562 4.53125 -8.46875 C 3.09375 -11.332031 2.375 -14.648438 2.375 -18.421875 C 2.375 -22.179688 3.09375 -25.503906 4.53125 -28.390625 C 5.976562 -31.273438 8.035156 -33.523438 10.703125 -35.140625 C 13.378906 -36.753906 16.582031 -37.5625 20.3125 -37.5625 C 24.75 -37.5625 28.378906 -36.460938 31.203125 -34.265625 C 34.035156 -32.066406 35.804688 -28.984375 36.515625 -25.015625 L 29.078125 -25.015625 C 28.617188 -27.015625 27.640625 -28.585938 26.140625 -29.734375 C 24.648438 -30.878906 22.671875 -31.453125 20.203125 -31.453125 C 16.796875 -31.453125 14.125 -30.289062 12.1875 -27.96875 C 10.25 -25.644531 9.28125 -22.460938 9.28125 -18.421875 C 9.28125 -14.367188 10.25 -11.191406 12.1875 -8.890625 C 14.125 -6.585938 16.796875 -5.4375 20.203125 -5.4375 C 22.671875 -5.4375 24.648438 -5.972656 26.140625 -7.046875 C 27.640625 -8.117188 28.617188 -9.601562 29.078125 -11.5 L 36.515625 -11.5 C 35.804688 -7.695312 34.035156 -4.722656 31.203125 -2.578125 C 28.378906 -0.429688 24.75 0.640625 20.3125 0.640625 Z M 20.3125 0.640625 "/></g></g></g><g fill="#00c49a" fill-opacity="1"><g transform="translate(33.459239, 182.648741)"><g><path d="M 15.984375 0.640625 C 13.453125 0.640625 11.175781 0.0625 9.15625 -1.09375 C 7.132812 -2.257812 5.53125 -3.867188 4.34375 -5.921875 C 3.164062 -7.984375 2.578125 -10.367188 2.578125 -13.078125 C 2.578125 -15.796875 3.175781 -18.179688 4.375 -20.234375 C 5.570312 -22.296875 7.179688 -23.90625 9.203125 -25.0625 C 11.222656 -26.226562 13.503906 -26.8125 16.046875 -26.8125 C 18.535156 -26.8125 20.789062 -26.226562 22.8125 -25.0625 C 24.84375 -23.90625 26.445312 -22.296875 27.625 -20.234375 C 28.800781 -18.179688 29.390625 -15.796875 29.390625 -13.078125 C 29.390625 -10.367188 28.800781 -7.984375 27.625 -5.921875 C 26.445312 -3.867188 24.835938 -2.257812 22.796875 -1.09375 C 20.753906 0.0625 18.484375 0.640625 15.984375 0.640625 Z M 15.984375 -5.21875 C 17.742188 -5.21875 19.273438 -5.878906 20.578125 -7.203125 C 21.878906 -8.523438 22.53125 -10.484375 22.53125 -13.078125 C 22.53125 -15.679688 21.878906 -17.644531 20.578125 -18.96875 C 19.273438 -20.289062 17.765625 -20.953125 16.046875 -20.953125 C 14.242188 -20.953125 12.703125 -20.289062 11.421875 -18.96875 C 10.140625 -17.644531 9.5 -15.679688 9.5 -13.078125 C 9.5 -10.484375 10.140625 -8.523438 11.421875 -7.203125 C 12.703125 -5.878906 14.222656 -5.21875 15.984375 -5.21875 Z M 15.984375 -5.21875 "/></g></g></g><g fill="#000000" fill-opacity="1"><g transform="translate(61.774141, 182.648741)"><g><path d="M 3.4375 0 L 3.4375 -26.171875 L 9.390625 -26.171875 L 9.96875 -22.640625 C 10.8125 -23.898438 11.925781 -24.910156 13.3125 -25.671875 C 14.707031 -26.429688 16.320312 -26.8125 18.15625 -26.8125 C 22.195312 -26.8125 25.0625 -25.242188 26.75 -22.109375 C 27.695312 -23.546875 28.972656 -24.6875 30.578125 -25.53125 C 32.179688 -26.382812 33.929688 -26.8125 35.828125 -26.8125 C 39.242188 -26.8125 41.863281 -25.789062 43.6875 -23.75 C 45.519531 -21.707031 46.4375 -18.71875 46.4375 -14.78125 L 46.4375 0 L 39.6875 0 L 39.6875 -14.140625 C 39.6875 -16.390625 39.253906 -18.113281 38.390625 -19.3125 C 37.523438 -20.507812 36.195312 -21.109375 34.40625 -21.109375 C 32.570312 -21.109375 31.097656 -20.4375 29.984375 -19.09375 C 28.878906 -17.757812 28.328125 -15.898438 28.328125 -13.515625 L 28.328125 0 L 21.578125 0 L 21.578125 -14.140625 C 21.578125 -16.390625 21.132812 -18.113281 20.25 -19.3125 C 19.375 -20.507812 18.023438 -21.109375 16.203125 -21.109375 C 14.410156 -21.109375 12.957031 -20.4375 11.84375 -19.09375 C 10.738281 -17.757812 10.1875 -15.898438 10.1875 -13.515625 L 10.1875 0 Z M 3.4375 0 "/></g></g></g><g fill="#000000" fill-opacity="1"><g transform="translate(107.566403, 182.648741)"><g><path d="M 3.4375 11.609375 L 3.4375 -26.171875 L 9.4375 -26.171875 L 10.1875 -22.421875 C 11.03125 -23.585938 12.144531 -24.609375 13.53125 -25.484375 C 14.925781 -26.367188 16.726562 -26.8125 18.9375 -26.8125 C 21.40625 -26.8125 23.601562 -26.210938 25.53125 -25.015625 C 27.46875 -23.816406 29 -22.175781 30.125 -20.09375 C 31.25 -18.019531 31.8125 -15.664062 31.8125 -13.03125 C 31.8125 -10.394531 31.25 -8.046875 30.125 -5.984375 C 29 -3.929688 27.46875 -2.3125 25.53125 -1.125 C 23.601562 0.0507812 21.40625 0.640625 18.9375 0.640625 C 16.96875 0.640625 15.242188 0.269531 13.765625 -0.46875 C 12.296875 -1.207031 11.101562 -2.25 10.1875 -3.59375 L 10.1875 11.609375 Z M 17.515625 -5.28125 C 19.660156 -5.28125 21.4375 -6 22.84375 -7.4375 C 24.25 -8.882812 24.953125 -10.75 24.953125 -13.03125 C 24.953125 -15.320312 24.25 -17.203125 22.84375 -18.671875 C 21.4375 -20.148438 19.660156 -20.890625 17.515625 -20.890625 C 15.335938 -20.890625 13.550781 -20.160156 12.15625 -18.703125 C 10.769531 -17.242188 10.078125 -15.367188 10.078125 -13.078125 C 10.078125 -10.796875 10.769531 -8.925781 12.15625 -7.46875 C 13.550781 -6.007812 15.335938 -5.28125 17.515625 -5.28125 Z M 17.515625 -5.28125 "/></g></g></g><g fill="#000000" fill-opacity="1"><g transform="translate(138.322952, 182.648741)"><g><path d="M 12.453125 0.640625 C 10.203125 0.640625 8.351562 0.28125 6.90625 -0.4375 C 5.46875 -1.164062 4.394531 -2.128906 3.6875 -3.328125 C 2.988281 -4.523438 2.640625 -5.84375 2.640625 -7.28125 C 2.640625 -9.707031 3.585938 -11.675781 5.484375 -13.1875 C 7.390625 -14.695312 10.238281 -15.453125 14.03125 -15.453125 L 20.6875 -15.453125 L 20.6875 -16.09375 C 20.6875 -17.882812 20.175781 -19.203125 19.15625 -20.046875 C 18.132812 -20.890625 16.867188 -21.3125 15.359375 -21.3125 C 13.984375 -21.3125 12.785156 -20.984375 11.765625 -20.328125 C 10.742188 -19.679688 10.109375 -18.726562 9.859375 -17.46875 L 3.265625 -17.46875 C 3.441406 -19.363281 4.082031 -21.015625 5.1875 -22.421875 C 6.300781 -23.828125 7.738281 -24.910156 9.5 -25.671875 C 11.257812 -26.429688 13.226562 -26.8125 15.40625 -26.8125 C 19.132812 -26.8125 22.070312 -25.878906 24.21875 -24.015625 C 26.363281 -22.148438 27.4375 -19.507812 27.4375 -16.09375 L 27.4375 0 L 21.6875 0 L 21.046875 -4.21875 C 20.273438 -2.8125 19.191406 -1.648438 17.796875 -0.734375 C 16.410156 0.179688 14.628906 0.640625 12.453125 0.640625 Z M 13.984375 -4.640625 C 15.921875 -4.640625 17.425781 -5.269531 18.5 -6.53125 C 19.570312 -7.800781 20.25 -9.367188 20.53125 -11.234375 L 14.78125 -11.234375 C 12.976562 -11.234375 11.691406 -10.90625 10.921875 -10.25 C 10.148438 -9.601562 9.765625 -8.804688 9.765625 -7.859375 C 9.765625 -6.835938 10.148438 -6.046875 10.921875 -5.484375 C 11.691406 -4.921875 12.710938 -4.640625 13.984375 -4.640625 Z M 13.984375 -4.640625 "/></g></g></g><g fill="#000000" fill-opacity="1"><g transform="translate(165.122731, 182.648741)"><g><path d="M 3.4375 0 L 3.4375 -26.171875 L 9.4375 -26.171875 L 10.078125 -21.265625 C 11.023438 -22.953125 12.316406 -24.296875 13.953125 -25.296875 C 15.585938 -26.304688 17.515625 -26.8125 19.734375 -26.8125 L 19.734375 -19.6875 L 17.828125 -19.6875 C 16.359375 -19.6875 15.039062 -19.457031 13.875 -19 C 12.71875 -18.539062 11.8125 -17.75 11.15625 -16.625 C 10.507812 -15.5 10.1875 -13.929688 10.1875 -11.921875 L 10.1875 0 Z M 3.4375 0 "/></g></g></g><g fill="#000000" fill-opacity="1"><g transform="translate(182.373509, 182.648741)"><g><path d="M 16.140625 0.640625 C 13.503906 0.640625 11.164062 0.078125 9.125 -1.046875 C 7.082031 -2.179688 5.476562 -3.765625 4.3125 -5.796875 C 3.15625 -7.835938 2.578125 -10.195312 2.578125 -12.875 C 2.578125 -15.582031 3.148438 -17.988281 4.296875 -20.09375 C 5.441406 -22.207031 7.023438 -23.851562 9.046875 -25.03125 C 11.066406 -26.21875 13.453125 -26.8125 16.203125 -26.8125 C 18.765625 -26.8125 21.03125 -26.242188 23 -25.109375 C 24.96875 -23.984375 26.503906 -22.445312 27.609375 -20.5 C 28.722656 -18.550781 29.28125 -16.378906 29.28125 -13.984375 C 29.28125 -13.597656 29.269531 -13.191406 29.25 -12.765625 C 29.238281 -12.347656 29.210938 -11.910156 29.171875 -11.453125 L 9.28125 -11.453125 C 9.425781 -9.410156 10.140625 -7.804688 11.421875 -6.640625 C 12.703125 -5.484375 14.257812 -4.90625 16.09375 -4.90625 C 17.46875 -4.90625 18.617188 -5.210938 19.546875 -5.828125 C 20.484375 -6.441406 21.179688 -7.242188 21.640625 -8.234375 L 28.5 -8.234375 C 28 -6.578125 27.175781 -5.070312 26.03125 -3.71875 C 24.894531 -2.363281 23.488281 -1.296875 21.8125 -0.515625 C 20.144531 0.253906 18.253906 0.640625 16.140625 0.640625 Z M 16.203125 -21.3125 C 14.546875 -21.3125 13.082031 -20.84375 11.8125 -19.90625 C 10.550781 -18.976562 9.742188 -17.566406 9.390625 -15.671875 L 22.421875 -15.671875 C 22.316406 -17.390625 21.679688 -18.757812 20.515625 -19.78125 C 19.359375 -20.800781 17.921875 -21.3125 16.203125 -21.3125 Z M 16.203125 -21.3125 "/></g></g></g><g fill="#000000" fill-opacity="1"><g transform="translate(210.281175, 182.648741)"><g><path d="M 12.453125 0.640625 C 10.203125 0.640625 8.351562 0.28125 6.90625 -0.4375 C 5.46875 -1.164062 4.394531 -2.128906 3.6875 -3.328125 C 2.988281 -4.523438 2.640625 -5.84375 2.640625 -7.28125 C 2.640625 -9.707031 3.585938 -11.675781 5.484375 -13.1875 C 7.390625 -14.695312 10.238281 -15.453125 14.03125 -15.453125 L 20.6875 -15.453125 L 20.6875 -16.09375 C 20.6875 -17.882812 20.175781 -19.203125 19.15625 -20.046875 C 18.132812 -20.890625 16.867188 -21.3125 15.359375 -21.3125 C 13.984375 -21.3125 12.785156 -20.984375 11.765625 -20.328125 C 10.742188 -19.679688 10.109375 -18.726562 9.859375 -17.46875 L 3.265625 -17.46875 C 3.441406 -19.363281 4.082031 -21.015625 5.1875 -22.421875 C 6.300781 -23.828125 7.738281 -24.910156 9.5 -25.671875 C 11.257812 -26.429688 13.226562 -26.8125 15.40625 -26.8125 C 19.132812 -26.8125 22.070312 -25.878906 24.21875 -24.015625 C 26.363281 -22.148438 27.4375 -19.507812 27.4375 -16.09375 L 27.4375 0 L 21.6875 0 L 21.046875 -4.21875 C 20.273438 -2.8125 19.191406 -1.648438 17.796875 -0.734375 C 16.410156 0.179688 14.628906 0.640625 12.453125 0.640625 Z M 13.984375 -4.640625 C 15.921875 -4.640625 17.425781 -5.269531 18.5 -6.53125 C 19.570312 -7.800781 20.25 -9.367188 20.53125 -11.234375 L 14.78125 -11.234375 C 12.976562 -11.234375 11.691406 -10.90625 10.921875 -10.25 C 10.148438 -9.601562 9.765625 -8.804688 9.765625 -7.859375 C 9.765625 -6.835938 10.148438 -6.046875 10.921875 -5.484375 C 11.691406 -4.921875 12.710938 -4.640625 13.984375 -4.640625 Z M 13.984375 -4.640625 "/></g></g></g><path stroke-linecap="butt" transform="matrix(0.000000000000000139, -2.266094, 2.440678, 0.000000000000000149, 251.612333, 182.293553)" fill="none" stroke-linejoin="miter" d="M 0.000257747 0.00038861 L 18.203385 0.00038861 " stroke="#000000" stroke-width="1" stroke-opacity="1" stroke-miterlimit="4"/><g fill="#000000" fill-opacity="1"><g transform="translate(263.354637, 156.612078)"><g><path d="M 1.421875 0 L 1.421875 -14.578125 L 4.078125 -14.578125 L 4.078125 -2.078125 L 10.53125 -2.078125 L 10.53125 0 Z M 1.421875 0 "/></g></g></g><g fill="#000000" fill-opacity="1"><g transform="translate(273.685973, 156.612078)"><g><path d="M 1.0625 -11.375 L 0.8125 -15.71875 L 3.140625 -15.71875 L 2.875 -11.375 Z M 1.0625 -11.375 "/></g></g></g><g fill="#000000" fill-opacity="1"><g transform="translate(276.477094, 156.612078)"><g><path d="M 4.921875 0.25 C 4.023438 0.25 3.289062 0.109375 2.71875 -0.171875 C 2.15625 -0.460938 1.734375 -0.84375 1.453125 -1.3125 C 1.179688 -1.78125 1.046875 -2.300781 1.046875 -2.875 C 1.046875 -3.832031 1.421875 -4.609375 2.171875 -5.203125 C 2.921875 -5.804688 4.046875 -6.109375 5.546875 -6.109375 L 8.171875 -6.109375 L 8.171875 -6.359375 C 8.171875 -7.066406 7.96875 -7.585938 7.5625 -7.921875 C 7.15625 -8.253906 6.65625 -8.421875 6.0625 -8.421875 C 5.519531 -8.421875 5.046875 -8.289062 4.640625 -8.03125 C 4.242188 -7.769531 3.992188 -7.390625 3.890625 -6.890625 L 1.296875 -6.890625 C 1.359375 -7.640625 1.609375 -8.289062 2.046875 -8.84375 C 2.484375 -9.40625 3.050781 -9.832031 3.75 -10.125 C 4.445312 -10.425781 5.222656 -10.578125 6.078125 -10.578125 C 7.554688 -10.578125 8.71875 -10.207031 9.5625 -9.46875 C 10.40625 -8.738281 10.828125 -7.703125 10.828125 -6.359375 L 10.828125 0 L 8.5625 0 L 8.3125 -1.671875 C 8.007812 -1.109375 7.582031 -0.644531 7.03125 -0.28125 C 6.476562 0.0703125 5.773438 0.25 4.921875 0.25 Z M 5.515625 -1.828125 C 6.285156 -1.828125 6.878906 -2.078125 7.296875 -2.578125 C 7.722656 -3.078125 7.992188 -3.695312 8.109375 -4.4375 L 5.828125 -4.4375 C 5.117188 -4.4375 4.613281 -4.304688 4.3125 -4.046875 C 4.007812 -3.796875 3.859375 -3.484375 3.859375 -3.109375 C 3.859375 -2.703125 4.007812 -2.382812 4.3125 -2.15625 C 4.613281 -1.9375 5.015625 -1.828125 5.515625 -1.828125 Z M 5.515625 -1.828125 "/></g></g></g><g fill="#000000" fill-opacity="1"><g transform="translate(287.349997, 156.612078)"><g><path d="M 5.625 0.25 C 4.707031 0.25 3.898438 0.101562 3.203125 -0.1875 C 2.515625 -0.488281 1.960938 -0.90625 1.546875 -1.4375 C 1.128906 -1.96875 0.878906 -2.578125 0.796875 -3.265625 L 3.484375 -3.265625 C 3.566406 -2.867188 3.789062 -2.523438 4.15625 -2.234375 C 4.519531 -1.953125 4.992188 -1.8125 5.578125 -1.8125 C 6.160156 -1.8125 6.585938 -1.925781 6.859375 -2.15625 C 7.128906 -2.394531 7.265625 -2.671875 7.265625 -2.984375 C 7.265625 -3.421875 7.070312 -3.71875 6.6875 -3.875 C 6.300781 -4.039062 5.757812 -4.203125 5.0625 -4.359375 C 4.613281 -4.453125 4.160156 -4.566406 3.703125 -4.703125 C 3.242188 -4.847656 2.820312 -5.023438 2.4375 -5.234375 C 2.0625 -5.453125 1.753906 -5.726562 1.515625 -6.0625 C 1.285156 -6.40625 1.171875 -6.828125 1.171875 -7.328125 C 1.171875 -8.242188 1.535156 -9.015625 2.265625 -9.640625 C 2.992188 -10.265625 4.015625 -10.578125 5.328125 -10.578125 C 6.554688 -10.578125 7.535156 -10.289062 8.265625 -9.71875 C 8.992188 -9.15625 9.425781 -8.375 9.5625 -7.375 L 7.046875 -7.375 C 6.890625 -8.132812 6.3125 -8.515625 5.3125 -8.515625 C 4.8125 -8.515625 4.425781 -8.414062 4.15625 -8.21875 C 3.882812 -8.03125 3.75 -7.789062 3.75 -7.5 C 3.75 -7.195312 3.945312 -6.953125 4.34375 -6.765625 C 4.75 -6.585938 5.285156 -6.421875 5.953125 -6.265625 C 6.679688 -6.097656 7.347656 -5.914062 7.953125 -5.71875 C 8.554688 -5.519531 9.035156 -5.222656 9.390625 -4.828125 C 9.753906 -4.429688 9.9375 -3.863281 9.9375 -3.125 C 9.945312 -2.488281 9.78125 -1.910156 9.4375 -1.390625 C 9.09375 -0.878906 8.59375 -0.476562 7.9375 -0.1875 C 7.28125 0.101562 6.507812 0.25 5.625 0.25 Z M 5.625 0.25 "/></g></g></g><g fill="#000000" fill-opacity="1"><g transform="translate(297.139767, 156.612078)"><g><path d="M 5.625 0.25 C 4.707031 0.25 3.898438 0.101562 3.203125 -0.1875 C 2.515625 -0.488281 1.960938 -0.90625 1.546875 -1.4375 C 1.128906 -1.96875 0.878906 -2.578125 0.796875 -3.265625 L 3.484375 -3.265625 C 3.566406 -2.867188 3.789062 -2.523438 4.15625 -2.234375 C 4.519531 -1.953125 4.992188 -1.8125 5.578125 -1.8125 C 6.160156 -1.8125 6.585938 -1.925781 6.859375 -2.15625 C 7.128906 -2.394531 7.265625 -2.671875 7.265625 -2.984375 C 7.265625 -3.421875 7.070312 -3.71875 6.6875 -3.875 C 6.300781 -4.039062 5.757812 -4.203125 5.0625 -4.359375 C 4.613281 -4.453125 4.160156 -4.566406 3.703125 -4.703125 C 3.242188 -4.847656 2.820312 -5.023438 2.4375 -5.234375 C 2.0625 -5.453125 1.753906 -5.726562 1.515625 -6.0625 C 1.285156 -6.40625 1.171875 -6.828125 1.171875 -7.328125 C 1.171875 -8.242188 1.535156 -9.015625 2.265625 -9.640625 C 2.992188 -10.265625 4.015625 -10.578125 5.328125 -10.578125 C 6.554688 -10.578125 7.535156 -10.289062 8.265625 -9.71875 C 8.992188 -9.15625 9.425781 -8.375 9.5625 -7.375 L 7.046875 -7.375 C 6.890625 -8.132812 6.3125 -8.515625 5.3125 -8.515625 C 4.8125 -8.515625 4.425781 -8.414062 4.15625 -8.21875 C 3.882812 -8.03125 3.75 -7.789062 3.75 -7.5 C 3.75 -7.195312 3.945312 -6.953125 4.34375 -6.765625 C 4.75 -6.585938 5.285156 -6.421875 5.953125 -6.265625 C 6.679688 -6.097656 7.347656 -5.914062 7.953125 -5.71875 C 8.554688 -5.519531 9.035156 -5.222656 9.390625 -4.828125 C 9.753906 -4.429688 9.9375 -3.863281 9.9375 -3.125 C 9.945312 -2.488281 9.78125 -1.910156 9.4375 -1.390625 C 9.09375 -0.878906 8.59375 -0.476562 7.9375 -0.1875 C 7.28125 0.101562 6.507812 0.25 5.625 0.25 Z M 5.625 0.25 "/></g></g></g><g fill="#000000" fill-opacity="1"><g transform="translate(306.929537, 156.612078)"><g><path d="M 5.234375 0.25 C 3.941406 0.25 2.941406 -0.148438 2.234375 -0.953125 C 1.535156 -1.765625 1.1875 -2.945312 1.1875 -4.5 L 1.1875 -10.328125 L 3.828125 -10.328125 L 3.828125 -4.75 C 3.828125 -3.863281 4.007812 -3.179688 4.375 -2.703125 C 4.738281 -2.234375 5.304688 -2 6.078125 -2 C 6.816406 -2 7.425781 -2.257812 7.90625 -2.78125 C 8.382812 -3.3125 8.625 -4.050781 8.625 -5 L 8.625 -10.328125 L 11.28125 -10.328125 L 11.28125 0 L 8.9375 0 L 8.734375 -1.75 C 8.410156 -1.132812 7.945312 -0.644531 7.34375 -0.28125 C 6.738281 0.0703125 6.035156 0.25 5.234375 0.25 Z M 5.234375 0.25 "/></g></g></g><g fill="#000000" fill-opacity="1"><g transform="translate(318.448147, 156.612078)"><g><path d="M 1.359375 0 L 1.359375 -10.328125 L 3.734375 -10.328125 L 3.984375 -8.390625 C 4.359375 -9.054688 4.867188 -9.585938 5.515625 -9.984375 C 6.160156 -10.378906 6.921875 -10.578125 7.796875 -10.578125 L 7.796875 -7.765625 L 7.046875 -7.765625 C 6.460938 -7.765625 5.941406 -7.675781 5.484375 -7.5 C 5.023438 -7.320312 4.664062 -7.007812 4.40625 -6.5625 C 4.144531 -6.113281 4.015625 -5.492188 4.015625 -4.703125 L 4.015625 0 Z M 1.359375 0 "/></g></g></g><g fill="#000000" fill-opacity="1"><g transform="translate(325.550944, 156.612078)"><g><path d="M 4.921875 0.25 C 4.023438 0.25 3.289062 0.109375 2.71875 -0.171875 C 2.15625 -0.460938 1.734375 -0.84375 1.453125 -1.3125 C 1.179688 -1.78125 1.046875 -2.300781 1.046875 -2.875 C 1.046875 -3.832031 1.421875 -4.609375 2.171875 -5.203125 C 2.921875 -5.804688 4.046875 -6.109375 5.546875 -6.109375 L 8.171875 -6.109375 L 8.171875 -6.359375 C 8.171875 -7.066406 7.96875 -7.585938 7.5625 -7.921875 C 7.15625 -8.253906 6.65625 -8.421875 6.0625 -8.421875 C 5.519531 -8.421875 5.046875 -8.289062 4.640625 -8.03125 C 4.242188 -7.769531 3.992188 -7.390625 3.890625 -6.890625 L 1.296875 -6.890625 C 1.359375 -7.640625 1.609375 -8.289062 2.046875 -8.84375 C 2.484375 -9.40625 3.050781 -9.832031 3.75 -10.125 C 4.445312 -10.425781 5.222656 -10.578125 6.078125 -10.578125 C 7.554688 -10.578125 8.71875 -10.207031 9.5625 -9.46875 C 10.40625 -8.738281 10.828125 -7.703125 10.828125 -6.359375 L 10.828125 0 L 8.5625 0 L 8.3125 -1.671875 C 8.007812 -1.109375 7.582031 -0.644531 7.03125 -0.28125 C 6.476562 0.0703125 5.773438 0.25 4.921875 0.25 Z M 5.515625 -1.828125 C 6.285156 -1.828125 6.878906 -2.078125 7.296875 -2.578125 C 7.722656 -3.078125 7.992188 -3.695312 8.109375 -4.4375 L 5.828125 -4.4375 C 5.117188 -4.4375 4.613281 -4.304688 4.3125 -4.046875 C 4.007812 -3.796875 3.859375 -3.484375 3.859375 -3.109375 C 3.859375 -2.703125 4.007812 -2.382812 4.3125 -2.15625 C 4.613281 -1.9375 5.015625 -1.828125 5.515625 -1.828125 Z M 5.515625 -1.828125 "/></g></g></g><g fill="#000000" fill-opacity="1"><g transform="translate(336.423845, 156.612078)"><g><path d="M 1.359375 0 L 1.359375 -10.328125 L 3.703125 -10.328125 L 3.921875 -8.578125 C 4.234375 -9.191406 4.691406 -9.675781 5.296875 -10.03125 C 5.898438 -10.394531 6.613281 -10.578125 7.4375 -10.578125 C 8.71875 -10.578125 9.707031 -10.175781 10.40625 -9.375 C 11.113281 -8.570312 11.46875 -7.390625 11.46875 -5.828125 L 11.46875 0 L 8.8125 0 L 8.8125 -5.578125 C 8.8125 -6.472656 8.628906 -7.15625 8.265625 -7.625 C 7.910156 -8.09375 7.347656 -8.328125 6.578125 -8.328125 C 5.828125 -8.328125 5.210938 -8.0625 4.734375 -7.53125 C 4.253906 -7.007812 4.015625 -6.273438 4.015625 -5.328125 L 4.015625 0 Z M 1.359375 0 "/></g></g></g><g fill="#000000" fill-opacity="1"><g transform="translate(347.942451, 156.612078)"><g><path d="M 6.421875 0.25 C 5.359375 0.25 4.425781 0.0195312 3.625 -0.4375 C 2.820312 -0.894531 2.1875 -1.53125 1.71875 -2.34375 C 1.25 -3.164062 1.015625 -4.109375 1.015625 -5.171875 C 1.015625 -6.222656 1.25 -7.15625 1.71875 -7.96875 C 2.1875 -8.789062 2.820312 -9.429688 3.625 -9.890625 C 4.425781 -10.347656 5.359375 -10.578125 6.421875 -10.578125 C 7.734375 -10.578125 8.835938 -10.234375 9.734375 -9.546875 C 10.640625 -8.859375 11.21875 -7.910156 11.46875 -6.703125 L 8.671875 -6.703125 C 8.523438 -7.203125 8.25 -7.59375 7.84375 -7.875 C 7.4375 -8.164062 6.953125 -8.3125 6.390625 -8.3125 C 5.660156 -8.3125 5.035156 -8.03125 4.515625 -7.46875 C 4.003906 -6.914062 3.75 -6.148438 3.75 -5.171875 C 3.75 -4.179688 4.003906 -3.40625 4.515625 -2.84375 C 5.035156 -2.289062 5.660156 -2.015625 6.390625 -2.015625 C 6.953125 -2.015625 7.4375 -2.15625 7.84375 -2.4375 C 8.25 -2.71875 8.523438 -3.113281 8.671875 -3.625 L 11.46875 -3.625 C 11.21875 -2.457031 10.640625 -1.519531 9.734375 -0.8125 C 8.835938 -0.101562 7.734375 0.25 6.421875 0.25 Z M 6.421875 0.25 "/></g></g></g><g fill="#000000" fill-opacity="1"><g transform="translate(359.294419, 156.612078)"><g><path d="M 6.375 0.25 C 5.332031 0.25 4.40625 0.03125 3.59375 -0.40625 C 2.789062 -0.851562 2.160156 -1.476562 1.703125 -2.28125 C 1.242188 -3.09375 1.015625 -4.023438 1.015625 -5.078125 C 1.015625 -6.148438 1.238281 -7.101562 1.6875 -7.9375 C 2.144531 -8.769531 2.769531 -9.414062 3.5625 -9.875 C 4.363281 -10.34375 5.304688 -10.578125 6.390625 -10.578125 C 7.410156 -10.578125 8.304688 -10.351562 9.078125 -9.90625 C 9.859375 -9.46875 10.46875 -8.863281 10.90625 -8.09375 C 11.34375 -7.320312 11.5625 -6.460938 11.5625 -5.515625 C 11.5625 -5.367188 11.554688 -5.210938 11.546875 -5.046875 C 11.535156 -4.878906 11.523438 -4.703125 11.515625 -4.515625 L 3.671875 -4.515625 C 3.722656 -3.710938 4 -3.082031 4.5 -2.625 C 5.007812 -2.164062 5.628906 -1.9375 6.359375 -1.9375 C 6.898438 -1.9375 7.351562 -2.054688 7.71875 -2.296875 C 8.082031 -2.546875 8.359375 -2.863281 8.546875 -3.25 L 11.25 -3.25 C 11.050781 -2.59375 10.726562 -2 10.28125 -1.46875 C 9.832031 -0.9375 9.273438 -0.515625 8.609375 -0.203125 C 7.953125 0.0976562 7.207031 0.25 6.375 0.25 Z M 6.390625 -8.421875 C 5.742188 -8.421875 5.171875 -8.234375 4.671875 -7.859375 C 4.171875 -7.492188 3.847656 -6.9375 3.703125 -6.1875 L 8.859375 -6.1875 C 8.816406 -6.863281 8.566406 -7.40625 8.109375 -7.8125 C 7.648438 -8.21875 7.078125 -8.421875 6.390625 -8.421875 Z M 6.390625 -8.421875 "/></g></g></g><g fill="#000000" fill-opacity="1"><g transform="translate(370.593261, 156.612078)"><g/></g></g><g fill="#000000" fill-opacity="1"><g transform="translate(263.354637, 182.648735)"><g><path d="M 1.421875 0 L 1.421875 -14.578125 L 6.8125 -14.578125 C 7.976562 -14.578125 8.941406 -14.378906 9.703125 -13.984375 C 10.460938 -13.597656 11.03125 -13.066406 11.40625 -12.390625 C 11.78125 -11.710938 11.96875 -10.953125 11.96875 -10.109375 C 11.96875 -9.296875 11.785156 -8.550781 11.421875 -7.875 C 11.066406 -7.207031 10.507812 -6.664062 9.75 -6.25 C 8.988281 -5.84375 8.007812 -5.640625 6.8125 -5.640625 L 4.078125 -5.640625 L 4.078125 0 Z M 4.078125 -7.8125 L 6.640625 -7.8125 C 7.578125 -7.8125 8.25 -8.015625 8.65625 -8.421875 C 9.0625 -8.835938 9.265625 -9.398438 9.265625 -10.109375 C 9.265625 -10.828125 9.0625 -11.390625 8.65625 -11.796875 C 8.25 -12.203125 7.578125 -12.40625 6.640625 -12.40625 L 4.078125 -12.40625 Z M 4.078125 -7.8125 "/></g></g></g><g fill="#000000" fill-opacity="1"><g transform="translate(274.852412, 182.648735)"><g><path d="M 6.3125 0.25 C 5.3125 0.25 4.410156 0.0195312 3.609375 -0.4375 C 2.816406 -0.894531 2.1875 -1.53125 1.71875 -2.34375 C 1.25 -3.15625 1.015625 -4.097656 1.015625 -5.171875 C 1.015625 -6.234375 1.25 -7.171875 1.71875 -7.984375 C 2.195312 -8.796875 2.832031 -9.429688 3.625 -9.890625 C 4.425781 -10.347656 5.328125 -10.578125 6.328125 -10.578125 C 7.316406 -10.578125 8.207031 -10.347656 9 -9.890625 C 9.800781 -9.429688 10.429688 -8.796875 10.890625 -7.984375 C 11.359375 -7.171875 11.59375 -6.234375 11.59375 -5.171875 C 11.59375 -4.097656 11.359375 -3.15625 10.890625 -2.34375 C 10.429688 -1.53125 9.800781 -0.894531 9 -0.4375 C 8.195312 0.0195312 7.300781 0.25 6.3125 0.25 Z M 6.3125 -2.0625 C 7.007812 -2.0625 7.613281 -2.320312 8.125 -2.84375 C 8.632812 -3.363281 8.890625 -4.140625 8.890625 -5.171875 C 8.890625 -6.191406 8.632812 -6.960938 8.125 -7.484375 C 7.613281 -8.003906 7.015625 -8.265625 6.328125 -8.265625 C 5.617188 -8.265625 5.007812 -8.003906 4.5 -7.484375 C 4 -6.960938 3.75 -6.191406 3.75 -5.171875 C 3.75 -4.140625 4 -3.363281 4.5 -2.84375 C 5.007812 -2.320312 5.613281 -2.0625 6.3125 -2.0625 Z M 6.3125 -2.0625 "/></g></g></g><g fill="#000000" fill-opacity="1"><g transform="translate(286.329369, 182.648735)"><g><path d="M 5.234375 0.25 C 3.941406 0.25 2.941406 -0.148438 2.234375 -0.953125 C 1.535156 -1.765625 1.1875 -2.945312 1.1875 -4.5 L 1.1875 -10.328125 L 3.828125 -10.328125 L 3.828125 -4.75 C 3.828125 -3.863281 4.007812 -3.179688 4.375 -2.703125 C 4.738281 -2.234375 5.304688 -2 6.078125 -2 C 6.816406 -2 7.425781 -2.257812 7.90625 -2.78125 C 8.382812 -3.3125 8.625 -4.050781 8.625 -5 L 8.625 -10.328125 L 11.28125 -10.328125 L 11.28125 0 L 8.9375 0 L 8.734375 -1.75 C 8.410156 -1.132812 7.945312 -0.644531 7.34375 -0.28125 C 6.738281 0.0703125 6.035156 0.25 5.234375 0.25 Z M 5.234375 0.25 "/></g></g></g><g fill="#000000" fill-opacity="1"><g transform="translate(297.847977, 182.648735)"><g><path d="M 1.359375 0 L 1.359375 -10.328125 L 3.734375 -10.328125 L 3.984375 -8.390625 C 4.359375 -9.054688 4.867188 -9.585938 5.515625 -9.984375 C 6.160156 -10.378906 6.921875 -10.578125 7.796875 -10.578125 L 7.796875 -7.765625 L 7.046875 -7.765625 C 6.460938 -7.765625 5.941406 -7.675781 5.484375 -7.5 C 5.023438 -7.320312 4.664062 -7.007812 4.40625 -6.5625 C 4.144531 -6.113281 4.015625 -5.492188 4.015625 -4.703125 L 4.015625 0 Z M 1.359375 0 "/></g></g></g><g fill="#000000" fill-opacity="1"><g transform="translate(304.950775, 182.648735)"><g/></g></g><g fill="#000000" fill-opacity="1"><g transform="translate(308.76253, 182.648735)"><g><path d="M 5.953125 0 C 4.867188 0 4 -0.257812 3.34375 -0.78125 C 2.695312 -1.3125 2.375 -2.253906 2.375 -3.609375 L 2.375 -8.109375 L 0.609375 -8.109375 L 0.609375 -10.328125 L 2.375 -10.328125 L 2.6875 -13.09375 L 5.046875 -13.09375 L 5.046875 -10.328125 L 7.828125 -10.328125 L 7.828125 -8.109375 L 5.046875 -8.109375 L 5.046875 -3.578125 C 5.046875 -3.078125 5.148438 -2.734375 5.359375 -2.546875 C 5.578125 -2.359375 5.953125 -2.265625 6.484375 -2.265625 L 7.765625 -2.265625 L 7.765625 0 Z M 5.953125 0 "/></g></g></g><g fill="#000000" fill-opacity="1"><g transform="translate(316.386061, 182.648735)"><g><path d="M 6.3125 0.25 C 5.3125 0.25 4.410156 0.0195312 3.609375 -0.4375 C 2.816406 -0.894531 2.1875 -1.53125 1.71875 -2.34375 C 1.25 -3.15625 1.015625 -4.097656 1.015625 -5.171875 C 1.015625 -6.234375 1.25 -7.171875 1.71875 -7.984375 C 2.195312 -8.796875 2.832031 -9.429688 3.625 -9.890625 C 4.425781 -10.347656 5.328125 -10.578125 6.328125 -10.578125 C 7.316406 -10.578125 8.207031 -10.347656 9 -9.890625 C 9.800781 -9.429688 10.429688 -8.796875 10.890625 -7.984375 C 11.359375 -7.171875 11.59375 -6.234375 11.59375 -5.171875 C 11.59375 -4.097656 11.359375 -3.15625 10.890625 -2.34375 C 10.429688 -1.53125 9.800781 -0.894531 9 -0.4375 C 8.195312 0.0195312 7.300781 0.25 6.3125 0.25 Z M 6.3125 -2.0625 C 7.007812 -2.0625 7.613281 -2.320312 8.125 -2.84375 C 8.632812 -3.363281 8.890625 -4.140625 8.890625 -5.171875 C 8.890625 -6.191406 8.632812 -6.960938 8.125 -7.484375 C 7.613281 -8.003906 7.015625 -8.265625 6.328125 -8.265625 C 5.617188 -8.265625 5.007812 -8.003906 4.5 -7.484375 C 4 -6.960938 3.75 -6.191406 3.75 -5.171875 C 3.75 -4.140625 4 -3.363281 4.5 -2.84375 C 5.007812 -2.320312 5.613281 -2.0625 6.3125 -2.0625 Z M 6.3125 -2.0625 "/></g></g></g><g fill="#000000" fill-opacity="1"><g transform="translate(327.86302, 182.648735)"><g><path d="M 5.234375 0.25 C 3.941406 0.25 2.941406 -0.148438 2.234375 -0.953125 C 1.535156 -1.765625 1.1875 -2.945312 1.1875 -4.5 L 1.1875 -10.328125 L 3.828125 -10.328125 L 3.828125 -4.75 C 3.828125 -3.863281 4.007812 -3.179688 4.375 -2.703125 C 4.738281 -2.234375 5.304688 -2 6.078125 -2 C 6.816406 -2 7.425781 -2.257812 7.90625 -2.78125 C 8.382812 -3.3125 8.625 -4.050781 8.625 -5 L 8.625 -10.328125 L 11.28125 -10.328125 L 11.28125 0 L 8.9375 0 L 8.734375 -1.75 C 8.410156 -1.132812 7.945312 -0.644531 7.34375 -0.28125 C 6.738281 0.0703125 6.035156 0.25 5.234375 0.25 Z M 5.234375 0.25 "/></g></g></g><g fill="#000000" fill-opacity="1"><g transform="translate(339.381626, 182.648735)"><g><path d="M 5.625 0.25 C 4.707031 0.25 3.898438 0.101562 3.203125 -0.1875 C 2.515625 -0.488281 1.960938 -0.90625 1.546875 -1.4375 C 1.128906 -1.96875 0.878906 -2.578125 0.796875 -3.265625 L 3.484375 -3.265625 C 3.566406 -2.867188 3.789062 -2.523438 4.15625 -2.234375 C 4.519531 -1.953125 4.992188 -1.8125 5.578125 -1.8125 C 6.160156 -1.8125 6.585938 -1.925781 6.859375 -2.15625 C 7.128906 -2.394531 7.265625 -2.671875 7.265625 -2.984375 C 7.265625 -3.421875 7.070312 -3.71875 6.6875 -3.875 C 6.300781 -4.039062 5.757812 -4.203125 5.0625 -4.359375 C 4.613281 -4.453125 4.160156 -4.566406 3.703125 -4.703125 C 3.242188 -4.847656 2.820312 -5.023438 2.4375 -5.234375 C 2.0625 -5.453125 1.753906 -5.726562 1.515625 -6.0625 C 1.285156 -6.40625 1.171875 -6.828125 1.171875 -7.328125 C 1.171875 -8.242188 1.535156 -9.015625 2.265625 -9.640625 C 2.992188 -10.265625 4.015625 -10.578125 5.328125 -10.578125 C 6.554688 -10.578125 7.535156 -10.289062 8.265625 -9.71875 C 8.992188 -9.15625 9.425781 -8.375 9.5625 -7.375 L 7.046875 -7.375 C 6.890625 -8.132812 6.3125 -8.515625 5.3125 -8.515625 C 4.8125 -8.515625 4.425781 -8.414062 4.15625 -8.21875 C 3.882812 -8.03125 3.75 -7.789062 3.75 -7.5 C 3.75 -7.195312 3.945312 -6.953125 4.34375 -6.765625 C 4.75 -6.585938 5.285156 -6.421875 5.953125 -6.265625 C 6.679688 -6.097656 7.347656 -5.914062 7.953125 -5.71875 C 8.554688 -5.519531 9.035156 -5.222656 9.390625 -4.828125 C 9.753906 -4.429688 9.9375 -3.863281 9.9375 -3.125 C 9.945312 -2.488281 9.78125 -1.910156 9.4375 -1.390625 C 9.09375 -0.878906 8.59375 -0.476562 7.9375 -0.1875 C 7.28125 0.101562 6.507812 0.25 5.625 0.25 Z M 5.625 0.25 "/></g></g></g></svg>