<svg
	data-name="Emg Frontalier"
	xmlns="http://www.w3.org/2000/svg"
	height="1em"
	width="1em"
	viewBox="0 0 500 500"
>
	<path
		d="M281.21 127.33a48.4 48.4 0 1 0-62.42 0 66 66 0 0 0-57.51 65.31v77.05a25 25 0 0 0 3 10.86h-5.38a6 6 0 0 0-6 6v20h-21.34a15.8 15.8 0 0 0-15.78 15.79v75.58a15.81 15.81 0 0 0 15.78 15.79h66.72v15.45A28.85 28.85 0 0 0 250 446.75a28.85 28.85 0 0 0 51.72-17.6V292.48a39.72 39.72 0 0 0 37-39.57v-60.27a66 66 0 0 0-57.51-65.31ZM213.6 90.38a36.4 36.4 0 1 1 36.4 36.4 36.43 36.43 0 0 1-36.4-36.4Zm-48.7 202.2h42v14h-42Zm-37.12 105.33v-75.58a3.79 3.79 0 0 1 3.78-3.79h108.65a3.79 3.79 0 0 1 3.79 3.79v75.58a3.79 3.79 0 0 1-3.79 3.79H131.56a3.79 3.79 0 0 1-3.78-3.79ZM227.14 446a16.87 16.87 0 0 1-16.86-16.86V413.7h29.93a15.8 15.8 0 0 0 3.79-.48v15.93A16.87 16.87 0 0 1 227.14 446Zm99.58-193.1a27.71 27.71 0 0 1-25 27.54v-88.63a6 6 0 0 0-12 0v237.34a16.86 16.86 0 0 1-33.72 0V322.33a15.8 15.8 0 0 0-15.79-15.79h-21.33v-20a6 6 0 0 0-6-6h-5.75a25 25 0 0 0 3.15-12.52v-76.21a6 6 0 0 0-12 0v76.25c0 9.64-7.83 12.4-12.45 12.51-5.52.14-12.09-2.78-12.52-11.45v-76.48a53.92 53.92 0 0 1 53.86-53.86h45.72a53.92 53.92 0 0 1 53.86 53.86Z"
	/>
</svg>