<svg
	data-name="Emg Résident"
	xmlns="http://www.w3.org/2000/svg"
	height="1em"
	width="1em"
	viewBox="0 0 500 500"
>
	<path
		d="M463.65 430h-27.79a18.34 18.34 0 0 0 1.14-6.31v-71.2a24.16 24.16 0 0 0 19.92-23.76v-32.46a38.29 38.29 0 0 0-28.19-36.88A28.81 28.81 0 0 0 412.38 213v-23l48.27 27.83a6 6 0 1 0 6-10.4l-54.27-31.29V64a6 6 0 0 0-6-6h-73.26a6 6 0 0 0-6 6v62.9L253 84.2a6 6 0 0 0-6 0L90.63 174.36l-57.27 33a6 6 0 1 0 6 10.4L87.62 190v240H36.35a6 6 0 0 0 0 12h427.3a6 6 0 0 0 0-12Zm-18.73-133.73v32.46A12.15 12.15 0 0 1 437 340.1v-44.27a6 6 0 1 0-12 0v127.82a6.31 6.31 0 0 1-12.62 0v-62a6 6 0 0 0-12 0v62a6.32 6.32 0 0 1-12.63 0V295.83a6 6 0 1 0-12 0v44.27a12.15 12.15 0 0 1-7.92-11.37v-32.46A26.26 26.26 0 0 1 394.06 270h24.63a26.26 26.26 0 0 1 26.23 26.27Zm-21.71-55.07a16.84 16.84 0 1 1-16.83-16.83 16.85 16.85 0 0 1 16.83 16.83ZM339.12 70h61.26v99.13l-61.26-35.31ZM99.62 183 250 96.32 400.38 183v30A28.81 28.81 0 0 0 384 259.39a38.29 38.29 0 0 0-28.19 36.88v32.46a24.17 24.17 0 0 0 19.92 23.76v71.16a18.11 18.11 0 0 0 1.17 6.35H312V262.68a6 6 0 0 0-6-6H194a6 6 0 0 0-6 6V430H99.62ZM200 430V268.68h100V430Z"
	/>
</svg>