    <svg
      width="216"
      height="124"
      viewBox="0 0 216 124"
      fill="none"
      xmlns="http://www.w3.org/2000/svg"
    >
      <g clip-path="url(#clip0_127_519)">
        <path
          d="M70.1576 14.2202H86.296V17.2188H79.9504V34.0754H76.461V17.2188H70.1436V14.2202H70.1576ZM85.6066 19.699H88.5895V22.4734H88.6457C88.7442 22.081 88.9271 21.7027 89.1945 21.3384C89.4618 20.9741 89.7854 20.6238 90.1653 20.3295C90.5452 20.0212 90.9673 19.783 91.4316 19.5869C91.8959 19.4047 92.3743 19.3066 92.8527 19.3066C93.2185 19.3066 93.4859 19.3206 93.6266 19.3346C93.7673 19.3487 93.908 19.3767 94.0627 19.3907V22.4453C93.8376 22.4033 93.6125 22.3753 93.3733 22.3473C93.1341 22.3192 92.909 22.3052 92.6839 22.3052C92.1492 22.3052 91.6427 22.4173 91.1643 22.6275C90.6859 22.8377 90.2779 23.16 89.9261 23.5663C89.5744 23.9867 89.293 24.4911 89.0819 25.1076C88.8709 25.7242 88.7724 26.4248 88.7724 27.2235V34.0614H85.5925V19.699H85.6066ZM108.682 34.0754H105.558V32.0717H105.502C105.108 32.8003 104.531 33.3748 103.757 33.8092C102.983 34.2435 102.195 34.4677 101.393 34.4677C99.4938 34.4677 98.1149 34.0053 97.2707 33.0665C96.4265 32.1277 96.0044 30.7125 96.0044 28.8209V19.699H99.1842V28.5126C99.1842 29.7737 99.4234 30.6705 99.9159 31.1889C100.394 31.7074 101.084 31.9736 101.956 31.9736C102.631 31.9736 103.18 31.8755 103.63 31.6653C104.081 31.4551 104.446 31.1889 104.714 30.8386C104.995 30.5023 105.192 30.0819 105.319 29.6055C105.445 29.1291 105.502 28.6107 105.502 28.0502V19.713H108.682V34.0754ZM114.099 29.4654C114.197 30.3902 114.549 31.0348 115.154 31.4131C115.773 31.7774 116.505 31.9736 117.363 31.9736C117.658 31.9736 117.996 31.9456 118.376 31.9035C118.756 31.8615 119.122 31.7634 119.445 31.6373C119.783 31.5112 120.05 31.315 120.275 31.0628C120.486 30.8106 120.585 30.4883 120.571 30.0819C120.557 29.6756 120.402 29.3393 120.121 29.0871C119.839 28.8209 119.487 28.6247 119.051 28.4565C118.615 28.3024 118.123 28.1623 117.56 28.0502C116.997 27.9381 116.434 27.812 115.857 27.6859C115.266 27.5598 114.689 27.3916 114.141 27.2095C113.592 27.0273 113.1 26.7751 112.663 26.4528C112.227 26.1445 111.875 25.7382 111.622 25.2478C111.355 24.7573 111.228 24.1548 111.228 23.4262C111.228 22.6415 111.425 21.9969 111.805 21.4645C112.185 20.932 112.677 20.5117 113.254 20.1894C113.845 19.8671 114.493 19.6429 115.21 19.5028C115.928 19.3767 116.617 19.3066 117.264 19.3066C118.01 19.3066 118.728 19.3907 119.403 19.5448C120.078 19.699 120.697 19.9512 121.246 20.3155C121.795 20.6658 122.245 21.1282 122.611 21.6887C122.977 22.2492 123.202 22.9358 123.3 23.7345H119.98C119.825 22.9778 119.487 22.4593 118.939 22.2071C118.39 21.9409 117.757 21.8148 117.053 21.8148C116.828 21.8148 116.561 21.8288 116.251 21.8708C115.942 21.9129 115.66 21.9829 115.379 22.081C115.112 22.1791 114.886 22.3332 114.689 22.5294C114.507 22.7256 114.408 22.9778 114.408 23.3001C114.408 23.6924 114.549 24.0007 114.816 24.2389C115.083 24.4771 115.435 24.6733 115.871 24.8414C116.308 24.9955 116.8 25.1357 117.363 25.2478C117.926 25.3599 118.502 25.486 119.093 25.6121C119.67 25.7382 120.233 25.9063 120.796 26.0885C121.359 26.2706 121.851 26.5229 122.287 26.8451C122.724 27.1674 123.075 27.5598 123.343 28.0362C123.61 28.5126 123.751 29.1151 123.751 29.8157C123.751 30.6705 123.554 31.3851 123.16 31.9876C122.766 32.5761 122.259 33.0665 121.64 33.4308C121.021 33.7952 120.318 34.0754 119.558 34.2435C118.798 34.4117 118.038 34.4958 117.292 34.4958C116.378 34.4958 115.534 34.3977 114.76 34.1875C113.986 33.9773 113.311 33.6691 112.748 33.2627C112.185 32.8423 111.735 32.3239 111.411 31.7074C111.088 31.0908 110.919 30.3482 110.891 29.4934H114.099V29.4654ZM124.595 19.699H127.001V15.3832H130.181V19.699H133.051V22.067H130.181V29.7457C130.181 30.0819 130.195 30.3622 130.223 30.6144C130.251 30.8526 130.321 31.0628 130.42 31.2309C130.518 31.3991 130.673 31.5252 130.884 31.6093C131.095 31.6933 131.363 31.7354 131.728 31.7354C131.954 31.7354 132.179 31.7354 132.404 31.7214C132.629 31.7074 132.854 31.6793 133.079 31.6233V34.0754C132.727 34.1174 132.376 34.1455 132.052 34.1875C131.714 34.2295 131.377 34.2435 131.025 34.2435C130.181 34.2435 129.505 34.1595 128.999 34.0053C128.492 33.8512 128.084 33.613 127.803 33.3047C127.507 32.9965 127.324 32.6181 127.212 32.1557C127.113 31.6933 127.043 31.1609 127.029 30.5724V22.095H124.623V19.699H124.595ZM135.302 19.699H138.313V21.6466H138.369C138.82 20.8059 139.439 20.2174 140.241 19.8531C141.043 19.4888 141.901 19.3066 142.844 19.3066C143.983 19.3066 144.968 19.5028 145.813 19.9091C146.657 20.3015 147.36 20.848 147.923 21.5486C148.486 22.2492 148.894 23.0619 149.175 23.9867C149.457 24.9115 149.597 25.9063 149.597 26.9572C149.597 27.9241 149.471 28.8629 149.218 29.7597C148.964 30.6705 148.584 31.4691 148.078 32.1698C147.571 32.8704 146.924 33.4168 146.136 33.8372C145.348 34.2576 144.434 34.4677 143.364 34.4677C142.9 34.4677 142.436 34.4257 141.971 34.3416C141.507 34.2576 141.057 34.1174 140.635 33.9353C140.213 33.7531 139.805 33.5149 139.453 33.2207C139.087 32.9264 138.792 32.5901 138.538 32.2118H138.482V39.386H135.302V19.699ZM146.418 26.9012C146.418 26.2566 146.333 25.6261 146.164 25.0096C145.995 24.393 145.742 23.8606 145.405 23.3841C145.067 22.9077 144.645 22.5294 144.152 22.2492C143.646 21.9689 143.069 21.8148 142.422 21.8148C141.085 21.8148 140.072 22.2772 139.397 23.202C138.721 24.1268 138.384 25.3599 138.384 26.9012C138.384 27.6298 138.468 28.3024 138.651 28.9189C138.834 29.5355 139.087 30.0679 139.453 30.5163C139.805 30.9647 140.227 31.315 140.719 31.5672C141.212 31.8335 141.789 31.9596 142.436 31.9596C143.167 31.9596 143.772 31.8054 144.279 31.5112C144.785 31.2169 145.193 30.8246 145.517 30.3622C145.841 29.8858 146.08 29.3533 146.221 28.7508C146.347 28.1483 146.418 27.5317 146.418 26.9012ZM152.032 14.2202H155.211V17.2188H152.032V14.2202ZM152.032 19.699H155.211V34.0754H152.032V19.699ZM158.054 14.2202H161.233V34.0754H158.054V14.2202ZM170.984 34.4677C169.83 34.4677 168.803 34.2716 167.903 33.8932C167.002 33.5149 166.242 32.9825 165.609 32.3239C164.99 31.6513 164.512 30.8526 164.188 29.9278C163.865 29.003 163.696 27.9801 163.696 26.8732C163.696 25.7802 163.865 24.7713 164.188 23.8465C164.512 22.9217 164.99 22.1231 165.609 21.4505C166.228 20.7779 167.002 20.2594 167.903 19.8811C168.803 19.5028 169.83 19.3066 170.984 19.3066C172.138 19.3066 173.165 19.5028 174.065 19.8811C174.966 20.2594 175.726 20.7919 176.359 21.4505C176.978 22.1231 177.456 22.9217 177.78 23.8465C178.103 24.7713 178.272 25.7802 178.272 26.8732C178.272 27.9801 178.103 29.003 177.78 29.9278C177.456 30.8526 176.978 31.6513 176.359 32.3239C175.74 32.9965 174.966 33.5149 174.065 33.8932C173.165 34.2716 172.138 34.4677 170.984 34.4677ZM170.984 31.9596C171.687 31.9596 172.307 31.8054 172.827 31.5112C173.348 31.2169 173.77 30.8246 174.108 30.3482C174.445 29.8718 174.684 29.3253 174.853 28.7228C175.008 28.1202 175.092 27.5037 175.092 26.8732C175.092 26.2566 175.008 25.6541 174.853 25.0376C174.698 24.421 174.445 23.8886 174.108 23.4122C173.77 22.9358 173.348 22.5574 172.827 22.2632C172.307 21.9689 171.687 21.8148 170.984 21.8148C170.28 21.8148 169.661 21.9689 169.141 22.2632C168.62 22.5574 168.198 22.9498 167.86 23.4122C167.523 23.8886 167.284 24.421 167.115 25.0376C166.96 25.6541 166.876 26.2566 166.876 26.8732C166.876 27.5037 166.96 28.1202 167.115 28.7228C167.269 29.3253 167.523 29.8718 167.86 30.3482C168.198 30.8246 168.62 31.2169 169.141 31.5112C169.661 31.8195 170.28 31.9596 170.984 31.9596ZM179.201 19.699H181.607V15.3832H184.787V19.699H187.657V22.067H184.787V29.7457C184.787 30.0819 184.801 30.3622 184.829 30.6144C184.857 30.8526 184.927 31.0628 185.026 31.2309C185.124 31.3991 185.279 31.5252 185.49 31.6093C185.701 31.6933 185.969 31.7354 186.334 31.7354C186.56 31.7354 186.785 31.7354 187.01 31.7214C187.235 31.7074 187.46 31.6793 187.685 31.6233V34.0754C187.333 34.1174 186.982 34.1455 186.658 34.1875C186.32 34.2295 185.983 34.2435 185.631 34.2435C184.787 34.2435 184.111 34.1595 183.605 34.0053C183.098 33.8512 182.69 33.613 182.409 33.3047C182.113 32.9965 181.931 32.6181 181.818 32.1557C181.719 31.6933 181.649 31.1609 181.635 30.5724V22.095H179.229V19.699H179.201Z"
          fill="#050505"
        />
        <path
          d="M66.4446 14.2203H51.868L47.3656 0.404297L42.8491 14.2203L28.2725 14.2062L40.0773 22.7536L35.5608 36.5556L47.3656 28.0222L59.1563 36.5556L54.6539 22.7536L66.4446 14.2203Z"
          fill="#00B67A"
        />
        <path
          d="M55.6666 25.8784L54.6535 22.7537L47.3652 28.0222L55.6666 25.8784Z"
          fill="#005128"
        />
      </g>
      <rect
        width="35.9972"
        height="35.8933"
        transform="translate(0 59.6052)"
        fill="#219653"
      />
      <path
        d="M17.9984 84.1452L23.4764 82.6844L25.7651 90.1068L17.9984 84.1452ZM30.6052 74.5514H20.9625L17.9984 64.9971L15.0343 74.5514H5.3916L13.1958 80.4735L10.2317 90.0278L18.0359 84.1057L22.8385 80.4735L30.6052 74.5514Z"
        fill="white"
      />
      <rect
        width="35.9972"
        height="35.8933"
        transform="translate(44.9834 59.6052)"
        fill="#219653"
      />
      <path
        d="M62.9818 84.1452L68.4598 82.6844L70.7485 90.1068L62.9818 84.1452ZM75.5886 74.5514H65.9459L62.9818 64.9971L60.0177 74.5514H50.375L58.1792 80.4735L55.2151 90.0278L63.0193 84.1057L67.8219 80.4735L75.5886 74.5514Z"
        fill="white"
      />
      <rect
        width="35.9972"
        height="35.8933"
        transform="translate(89.9668 59.6052)"
        fill="#219653"
      />
      <path
        d="M107.965 84.1452L113.443 82.6844L115.732 90.1068L107.965 84.1452ZM120.572 74.5514H110.929L107.965 64.9971L105.001 74.5514H95.3584L103.163 80.4735L100.199 90.0278L108.003 84.1057L112.805 80.4735L120.572 74.5514Z"
        fill="white"
      />
      <rect
        width="35.9972"
        height="35.8933"
        transform="translate(134.95 59.6052)"
        fill="#219653"
      />
      <path
        d="M152.949 84.1452L158.427 82.6844L160.715 90.1068L152.949 84.1452ZM165.555 74.5514H155.913L152.949 64.9971L149.985 74.5514H140.342L148.146 80.4735L145.182 90.0278L152.986 84.1057L157.789 80.4735L165.555 74.5514Z"
        fill="white"
      />
      <rect
        width="35.9972"
        height="35.8933"
        transform="translate(179.934 59.6052)"
        fill="url(#paint0_linear_127_519)"
      />
      <path
        d="M197.932 84.1452L203.41 82.6844L205.699 90.1068L197.932 84.1452ZM210.539 74.5514H200.896L197.932 64.9971L194.968 74.5514H185.325L193.129 80.4735L190.165 90.0278L197.97 84.1057L202.772 80.4735L210.539 74.5514Z"
        fill="white"
      />
      <path
        d="M58.0127 117.022V118.499H52.7217V117.022H58.0127ZM53.2959 108.545V118.499H51.416V108.545H53.2959ZM57.3223 112.654V114.096H52.7217V112.654H57.3223ZM57.9922 108.545V110.029H52.7217V108.545H57.9922ZM60.5967 111.102L61.916 113.454L63.2559 111.102H65.2178L63.0439 114.725L65.3066 118.499H63.3447L61.9297 116.031L60.5078 118.499H58.5459L60.8018 114.725L58.6416 111.102H60.5967ZM69.1621 117.213C69.4173 117.213 69.6452 117.163 69.8457 117.063C70.0462 116.963 70.2057 116.821 70.3242 116.639C70.4473 116.457 70.5133 116.245 70.5225 116.003H72.2246C72.2155 116.505 72.0742 116.954 71.8008 117.35C71.5273 117.747 71.1628 118.061 70.707 118.293C70.2559 118.521 69.75 118.635 69.1895 118.635C68.6198 118.635 68.123 118.54 67.6992 118.348C67.2754 118.157 66.9222 117.89 66.6396 117.548C66.3617 117.207 66.152 116.81 66.0107 116.359C65.874 115.908 65.8057 115.425 65.8057 114.91V114.691C65.8057 114.176 65.874 113.693 66.0107 113.242C66.152 112.791 66.3617 112.394 66.6396 112.052C66.9222 111.71 67.2754 111.444 67.6992 111.252C68.123 111.061 68.6175 110.965 69.1826 110.965C69.7796 110.965 70.3037 111.082 70.7549 111.314C71.2106 111.546 71.5661 111.875 71.8213 112.298C72.0811 112.722 72.2155 113.221 72.2246 113.795H70.5225C70.5133 113.531 70.4541 113.294 70.3447 113.084C70.2354 112.875 70.0804 112.706 69.8799 112.579C69.6794 112.451 69.4355 112.387 69.1484 112.387C68.8431 112.387 68.5879 112.451 68.3828 112.579C68.1823 112.706 68.0251 112.882 67.9111 113.105C67.8018 113.324 67.7243 113.57 67.6787 113.843C67.6377 114.112 67.6172 114.395 67.6172 114.691V114.91C67.6172 115.21 67.6377 115.498 67.6787 115.771C67.7243 116.044 67.8018 116.291 67.9111 116.509C68.0251 116.723 68.1823 116.894 68.3828 117.022C68.5879 117.15 68.8477 117.213 69.1621 117.213ZM76.75 118.635C76.1895 118.635 75.6859 118.544 75.2393 118.362C74.7926 118.18 74.4121 117.927 74.0977 117.603C73.7878 117.275 73.5485 116.894 73.3799 116.461C73.2158 116.024 73.1338 115.555 73.1338 115.053V114.78C73.1338 114.21 73.2158 113.693 73.3799 113.228C73.5439 112.759 73.7764 112.355 74.0771 112.018C74.3779 111.681 74.738 111.421 75.1572 111.239C75.5765 111.056 76.0391 110.965 76.5449 110.965C77.069 110.965 77.5316 111.054 77.9326 111.232C78.3337 111.405 78.6686 111.651 78.9375 111.97C79.2064 112.289 79.4092 112.672 79.5459 113.119C79.6826 113.561 79.751 114.051 79.751 114.588V115.347H73.9541V114.103H77.9736V113.966C77.9645 113.679 77.9098 113.417 77.8096 113.18C77.7093 112.939 77.5544 112.747 77.3447 112.606C77.1351 112.46 76.8639 112.387 76.5312 112.387C76.2624 112.387 76.0277 112.446 75.8271 112.565C75.6312 112.679 75.4671 112.843 75.335 113.057C75.2074 113.267 75.1117 113.517 75.0479 113.809C74.984 114.101 74.9521 114.424 74.9521 114.78V115.053C74.9521 115.363 74.9932 115.65 75.0752 115.915C75.1618 116.179 75.2871 116.409 75.4512 116.605C75.6198 116.796 75.8203 116.947 76.0527 117.056C76.2897 117.161 76.5586 117.213 76.8594 117.213C77.2376 117.213 77.5794 117.14 77.8848 116.995C78.1947 116.844 78.4635 116.623 78.6914 116.332L79.6006 117.275C79.4456 117.503 79.236 117.722 78.9717 117.931C78.7119 118.141 78.3975 118.312 78.0283 118.444C77.6592 118.571 77.2331 118.635 76.75 118.635ZM82.875 107.999V118.499H81.0635V107.999H82.875ZM86.5117 107.999V118.499H84.7002V107.999H86.5117ZM91.5566 118.635C90.9961 118.635 90.4925 118.544 90.0459 118.362C89.5993 118.18 89.2188 117.927 88.9043 117.603C88.5944 117.275 88.3551 116.894 88.1865 116.461C88.0225 116.024 87.9404 115.555 87.9404 115.053V114.78C87.9404 114.21 88.0225 113.693 88.1865 113.228C88.3506 112.759 88.583 112.355 88.8838 112.018C89.1846 111.681 89.5446 111.421 89.9639 111.239C90.3831 111.056 90.8457 110.965 91.3516 110.965C91.8757 110.965 92.3382 111.054 92.7393 111.232C93.1403 111.405 93.4753 111.651 93.7441 111.97C94.013 112.289 94.2158 112.672 94.3525 113.119C94.4893 113.561 94.5576 114.051 94.5576 114.588V115.347H88.7607V114.103H92.7803V113.966C92.7712 113.679 92.7165 113.417 92.6162 113.18C92.516 112.939 92.361 112.747 92.1514 112.606C91.9417 112.46 91.6706 112.387 91.3379 112.387C91.069 112.387 90.8343 112.446 90.6338 112.565C90.4378 112.679 90.2738 112.843 90.1416 113.057C90.014 113.267 89.9183 113.517 89.8545 113.809C89.7907 114.101 89.7588 114.424 89.7588 114.78V115.053C89.7588 115.363 89.7998 115.65 89.8818 115.915C89.9684 116.179 90.0938 116.409 90.2578 116.605C90.4264 116.796 90.627 116.947 90.8594 117.056C91.0964 117.161 91.3652 117.213 91.666 117.213C92.0443 117.213 92.3861 117.14 92.6914 116.995C93.0013 116.844 93.2702 116.623 93.498 116.332L94.4072 117.275C94.2523 117.503 94.0426 117.722 93.7783 117.931C93.5186 118.141 93.2041 118.312 92.835 118.444C92.4658 118.571 92.0397 118.635 91.5566 118.635ZM97.5381 112.681V118.499H95.7334V111.102H97.4287L97.5381 112.681ZM97.251 114.534H96.7178C96.7223 113.996 96.7952 113.508 96.9365 113.071C97.0778 112.633 97.276 112.257 97.5312 111.943C97.791 111.628 98.0986 111.387 98.4541 111.218C98.8096 111.05 99.2061 110.965 99.6436 110.965C99.999 110.965 100.32 111.015 100.607 111.116C100.895 111.216 101.141 111.375 101.346 111.594C101.555 111.813 101.715 112.1 101.824 112.456C101.938 112.806 101.995 113.239 101.995 113.754V118.499H100.177V113.741C100.177 113.403 100.127 113.137 100.026 112.941C99.9307 112.745 99.7894 112.606 99.6025 112.524C99.4202 112.442 99.1947 112.401 98.9258 112.401C98.6478 112.401 98.404 112.458 98.1943 112.572C97.9893 112.681 97.8161 112.834 97.6748 113.03C97.5381 113.226 97.4333 113.451 97.3604 113.707C97.2874 113.962 97.251 114.237 97.251 114.534ZM107.088 111.102V112.401H102.85V111.102H107.088ZM103.984 109.284H105.796V116.366C105.796 116.584 105.826 116.753 105.885 116.872C105.944 116.99 106.033 117.07 106.151 117.111C106.27 117.152 106.411 117.172 106.575 117.172C106.694 117.172 106.803 117.166 106.903 117.152C107.004 117.138 107.088 117.125 107.156 117.111L107.163 118.464C107.013 118.514 106.842 118.556 106.65 118.587C106.464 118.619 106.252 118.635 106.015 118.635C105.609 118.635 105.254 118.567 104.948 118.43C104.643 118.289 104.406 118.063 104.237 117.753C104.069 117.439 103.984 117.024 103.984 116.509V109.284ZM118.593 114.869V116.291H111.422L111.347 115.197L115.564 108.545H117.007L115.448 111.191L113.186 114.869H118.593ZM117.41 108.545V118.499H115.599V108.545H117.41ZM119.851 117.617C119.851 117.343 119.944 117.113 120.131 116.926C120.318 116.739 120.571 116.646 120.89 116.646C121.209 116.646 121.462 116.739 121.648 116.926C121.835 117.113 121.929 117.343 121.929 117.617C121.929 117.886 121.835 118.113 121.648 118.3C121.462 118.483 121.209 118.574 120.89 118.574C120.571 118.574 120.318 118.483 120.131 118.3C119.944 118.113 119.851 117.886 119.851 117.617ZM130.344 108.545V109.53L126.434 118.499H124.526L128.437 109.967H123.378V108.545H130.344ZM139.682 116.537C139.682 116.354 139.641 116.186 139.559 116.031C139.481 115.871 139.319 115.728 139.073 115.6C138.832 115.468 138.467 115.354 137.979 115.258C137.569 115.172 137.198 115.069 136.865 114.951C136.537 114.832 136.257 114.689 136.024 114.52C135.797 114.351 135.621 114.153 135.498 113.925C135.375 113.697 135.313 113.431 135.313 113.125C135.313 112.834 135.377 112.558 135.505 112.298C135.637 112.039 135.822 111.808 136.059 111.608C136.3 111.407 136.59 111.25 136.927 111.136C137.264 111.022 137.64 110.965 138.055 110.965C138.647 110.965 139.153 111.07 139.572 111.28C139.992 111.489 140.313 111.77 140.536 112.121C140.759 112.467 140.871 112.852 140.871 113.276H139.606C139.606 113.071 139.545 112.873 139.422 112.681C139.303 112.485 139.128 112.323 138.896 112.196C138.668 112.068 138.387 112.004 138.055 112.004C137.704 112.004 137.419 112.059 137.2 112.168C136.986 112.273 136.829 112.408 136.729 112.572C136.633 112.736 136.585 112.909 136.585 113.091C136.585 113.228 136.608 113.351 136.653 113.46C136.703 113.565 136.79 113.663 136.913 113.754C137.036 113.841 137.209 113.923 137.433 114C137.656 114.078 137.941 114.155 138.287 114.233C138.893 114.37 139.392 114.534 139.784 114.725C140.176 114.917 140.468 115.151 140.659 115.429C140.851 115.707 140.946 116.044 140.946 116.441C140.946 116.764 140.878 117.061 140.741 117.33C140.609 117.598 140.415 117.831 140.16 118.027C139.91 118.218 139.609 118.369 139.258 118.478C138.911 118.583 138.522 118.635 138.089 118.635C137.437 118.635 136.886 118.519 136.435 118.287C135.983 118.054 135.642 117.753 135.409 117.384C135.177 117.015 135.061 116.625 135.061 116.215H136.332C136.35 116.562 136.451 116.837 136.633 117.042C136.815 117.243 137.038 117.387 137.303 117.473C137.567 117.555 137.829 117.596 138.089 117.596C138.435 117.596 138.725 117.551 138.957 117.459C139.194 117.368 139.374 117.243 139.497 117.083C139.62 116.924 139.682 116.742 139.682 116.537ZM147.133 116.79V111.102H148.404V118.499H147.194L147.133 116.79ZM147.372 115.231L147.898 115.217C147.898 115.709 147.846 116.165 147.741 116.584C147.641 116.999 147.477 117.359 147.249 117.665C147.021 117.97 146.723 118.209 146.354 118.382C145.984 118.551 145.535 118.635 145.007 118.635C144.647 118.635 144.316 118.583 144.016 118.478C143.719 118.373 143.464 118.211 143.25 117.993C143.036 117.774 142.869 117.489 142.751 117.138C142.637 116.787 142.58 116.366 142.58 115.874V111.102H143.845V115.887C143.845 116.22 143.881 116.496 143.954 116.714C144.032 116.929 144.134 117.099 144.262 117.227C144.394 117.35 144.54 117.437 144.699 117.487C144.863 117.537 145.032 117.562 145.205 117.562C145.743 117.562 146.169 117.459 146.483 117.254C146.798 117.045 147.023 116.764 147.16 116.414C147.301 116.058 147.372 115.664 147.372 115.231ZM151.597 112.264V118.499H150.332V111.102H151.562L151.597 112.264ZM153.907 111.061L153.9 112.237C153.796 112.214 153.695 112.2 153.6 112.196C153.508 112.187 153.404 112.182 153.285 112.182C152.993 112.182 152.736 112.228 152.513 112.319C152.289 112.41 152.1 112.538 151.945 112.702C151.79 112.866 151.667 113.062 151.576 113.29C151.49 113.513 151.433 113.759 151.405 114.028L151.05 114.233C151.05 113.786 151.093 113.367 151.18 112.975C151.271 112.583 151.41 112.237 151.597 111.936C151.784 111.631 152.021 111.394 152.308 111.225C152.599 111.052 152.946 110.965 153.347 110.965C153.438 110.965 153.543 110.977 153.661 111C153.78 111.018 153.862 111.038 153.907 111.061ZM160.012 113.761L159 113.501L159.499 108.545H164.605V109.714H160.572L160.271 112.421C160.454 112.317 160.684 112.219 160.962 112.127C161.244 112.036 161.568 111.991 161.933 111.991C162.393 111.991 162.805 112.07 163.17 112.23C163.535 112.385 163.844 112.608 164.1 112.9C164.359 113.192 164.558 113.542 164.694 113.953C164.831 114.363 164.899 114.821 164.899 115.327C164.899 115.805 164.833 116.245 164.701 116.646C164.574 117.047 164.38 117.398 164.12 117.699C163.86 117.995 163.532 118.225 163.136 118.389C162.744 118.553 162.281 118.635 161.748 118.635C161.347 118.635 160.966 118.581 160.606 118.471C160.251 118.357 159.932 118.186 159.649 117.958C159.371 117.726 159.144 117.439 158.966 117.097C158.793 116.751 158.683 116.345 158.638 115.88H159.841C159.896 116.254 160.005 116.569 160.169 116.824C160.333 117.079 160.547 117.273 160.812 117.405C161.08 117.532 161.393 117.596 161.748 117.596C162.049 117.596 162.315 117.544 162.548 117.439C162.78 117.334 162.976 117.184 163.136 116.988C163.295 116.792 163.416 116.555 163.498 116.277C163.585 115.999 163.628 115.687 163.628 115.34C163.628 115.026 163.585 114.734 163.498 114.465C163.411 114.196 163.282 113.962 163.108 113.761C162.94 113.561 162.732 113.406 162.486 113.296C162.24 113.182 161.958 113.125 161.639 113.125C161.215 113.125 160.894 113.182 160.675 113.296C160.461 113.41 160.24 113.565 160.012 113.761Z"
        fill="#131317"
      />
      <defs>
        <linearGradient
          id="paint0_linear_127_519"
          x1="0"
          y1="17.9466"
          x2="35.9972"
          y2="17.9466"
          gradientUnits="userSpaceOnUse"
        >
          <stop stop-color="#219653" />
          <stop offset="0.5" stop-color="#219653" />
          <stop offset="0.5001" stop-color="#219653" stop-opacity="0" />
          <stop offset="0.5002" stop-color="#D9D9D9" />
          <stop offset="0.9998" stop-color="#D9D9D9" />
          <stop offset="0.9999" stop-color="#219653" stop-opacity="0" />
          <stop offset="1" stop-color="#D9D9D9" />
        </linearGradient>
        <clipPath id="clip0_127_519">
          <rect
            width="159.386"
            height="38.9817"
            fill="white"
            transform="translate(28.2725 0.404297)"
          />
        </clipPath>
      </defs>
    </svg>