<svg xmlns="http://www.w3.org/2000/svg" xmlns:xlink="http://www.w3.org/1999/xlink" zoomAndPan="magnify" preserveAspectRatio="xMidYMid meet" version="1.0" viewBox="119.52 113.95 135.91 143.01"><defs><g/></defs><g fill="#000000" fill-opacity="1"><g transform="translate(113.143958, 214.933052)"><g><path d="M 54.609375 1.703125 C 44.578125 1.703125 35.96875 -0.445312 28.78125 -4.75 C 21.601562 -9.050781 16.070312 -15.054688 12.1875 -22.765625 C 8.3125 -30.472656 6.375 -39.382812 6.375 -49.5 C 6.375 -59.613281 8.3125 -68.546875 12.1875 -76.296875 C 16.070312 -84.054688 21.601562 -90.109375 28.78125 -94.453125 C 35.96875 -98.804688 44.578125 -100.984375 54.609375 -100.984375 C 66.515625 -100.984375 76.273438 -98.023438 83.890625 -92.109375 C 91.503906 -86.203125 96.253906 -77.90625 98.140625 -67.21875 L 78.140625 -67.21875 C 76.910156 -72.613281 74.285156 -76.847656 70.265625 -79.921875 C 66.253906 -82.992188 60.9375 -84.53125 54.3125 -84.53125 C 45.144531 -84.53125 37.960938 -81.410156 32.765625 -75.171875 C 27.566406 -68.929688 24.96875 -60.375 24.96875 -49.5 C 24.96875 -38.625 27.566406 -30.085938 32.765625 -23.890625 C 37.960938 -17.703125 45.144531 -14.609375 54.3125 -14.609375 C 60.9375 -14.609375 66.253906 -16.050781 70.265625 -18.9375 C 74.285156 -21.820312 76.910156 -25.816406 78.140625 -30.921875 L 98.140625 -30.921875 C 96.253906 -20.703125 91.503906 -12.707031 83.890625 -6.9375 C 76.273438 -1.175781 66.515625 1.703125 54.609375 1.703125 Z M 54.609375 1.703125 "/></g></g></g><g fill="#00c49a" fill-opacity="1"><g transform="translate(149.635015, 255.256155)"><g><path d="M 56.15625 1.703125 C 46.226562 1.703125 37.550781 -0.46875 30.125 -4.8125 C 22.707031 -9.164062 16.894531 -15.195312 12.6875 -22.90625 C 8.476562 -30.613281 6.375 -39.523438 6.375 -49.640625 C 6.375 -59.753906 8.476562 -68.664062 12.6875 -76.375 C 16.894531 -84.082031 22.707031 -90.109375 30.125 -94.453125 C 37.550781 -98.804688 46.226562 -100.984375 56.15625 -100.984375 C 65.988281 -100.984375 74.640625 -98.804688 82.109375 -94.453125 C 89.585938 -90.109375 95.40625 -84.082031 99.5625 -76.375 C 103.71875 -68.664062 105.796875 -59.753906 105.796875 -49.640625 C 105.796875 -39.523438 103.71875 -30.613281 99.5625 -22.90625 C 95.40625 -15.195312 89.585938 -9.164062 82.109375 -4.8125 C 74.640625 -0.46875 65.988281 1.703125 56.15625 1.703125 Z M 56.15625 -14.609375 C 65.613281 -14.609375 73.15625 -17.726562 78.78125 -23.96875 C 84.40625 -30.207031 87.21875 -38.765625 87.21875 -49.640625 C 87.21875 -60.515625 84.40625 -69.070312 78.78125 -75.3125 C 73.15625 -81.550781 65.613281 -84.671875 56.15625 -84.671875 C 46.707031 -84.671875 39.144531 -81.550781 33.46875 -75.3125 C 27.800781 -69.070312 24.96875 -60.515625 24.96875 -49.640625 C 24.96875 -38.765625 27.800781 -30.207031 33.46875 -23.96875 C 39.144531 -17.726562 46.707031 -14.609375 56.15625 -14.609375 Z M 56.15625 -14.609375 "/></g></g></g></svg>