<?xml version="1.0" encoding="UTF-8"?>
<svg id="Calque_1" data-name="Calque 1" xmlns="http://www.w3.org/2000/svg" viewBox="0 0 794 763">
  <defs>
    <style>
      .cls-1 {
        opacity: .97;
      }

      .cls-1, .cls-2 {
        fill: #888894;
        fill-rule: evenodd;
        isolation: isolate;
        stroke-width: 0px;
      }

      .cls-2 {
        opacity: .98;
      }
    </style>
  </defs>
  <path class="cls-1" d="m793.5,325.5v11c-6.34,6.18-12.17,12.84-17.5,20-.84,1.51-2,2.01-3.5,1.5-120.63-102.96-240.96-206.29-361-310-9.21-8.2-18.55-8.2-28,0C263.46,151.71,143.13,255.04,22.5,358c-1.5.51-2.66,0-3.5-1.5-6.36-7.86-12.86-15.52-19.5-23v-6C120.84,224.15,241.84,120.32,362.5,16c17.23-12.19,35.89-14.86,56-8,5.5,2.25,10.5,5.25,15,9,119.58,103.42,239.58,206.25,360,308.5Z"/>
  <path class="cls-2" d="m665.5,762.5h-186c-14.54-9.37-23.37-22.7-26.5-40-.02-69.04-.68-138.04-2-207-2.47-5.49-6.64-8.99-12.5-10.5-27.67-.67-55.33-.67-83,0-6.17,2.17-10.33,6.33-12.5,12.5-.33,67.67-.67,135.33-1,203-2.53,18.08-11.36,32.08-26.5,42h-187c-14.85-9.67-23.68-23.34-26.5-41-.5-126-.67-252-.5-378h38c-.17,125,0,250,.5,375,2.08,5.75,5.91,9.91,11.5,12.5,23.63,1.14,47.3,1.64,71,1.5,21.67-.17,43.33-.33,65-.5,10.53-1.2,16.36-7.03,17.5-17.5.33-67.67.67-135.33,1-203,6.27-24.4,21.77-39.23,46.5-44.5,30.33-.67,60.67-.67,91,0,26.4,5.73,41.9,21.9,46.5,48.5.33,67.33.67,134.67,1,202,2.51,8.85,8.35,13.68,17.5,14.5,43.33.67,86.67.67,130,0,8.2-1.2,13.7-5.7,16.5-13.5.5-125,.67-250,.5-375h38c.17,124.67,0,249.33-.5,374-1.66,19.78-10.82,34.78-27.5,45Z"/>
</svg>