<?xml version="1.0" encoding="UTF-8"?>
<svg id="Calque_1" data-name="Calque 1" xmlns="http://www.w3.org/2000/svg" viewBox="0 0 794 763">
  <defs>
    <style>
      .cls-1 {
        fill-rule: evenodd;
        isolation: isolate;
        opacity: .98;
      }

      .cls-1, .cls-2 {
        fill: #888894;
        stroke-width: 0px;
      }
    </style>
  </defs>
  <g>
    <path class="cls-2" d="m510.2,417.98c-21.56,0-43.11.08-64.67-.03-12.94-.06-16.62-3.73-16.68-16.93-.12-28.61-.11-57.21.04-85.82.07-12.93,3.92-16.72,16.96-16.75,43.11-.09,86.22-.1,129.33,0,12.57.03,16.49,3.67,16.59,15.9.23,29,.23,58,.06,87-.08,13.32-3.56,16.54-16.96,16.6-21.55.09-43.11.02-64.67.02Zm-.3-23.53c16.85,0,33.71-.15,50.56.09,5.31.07,7.76-1.27,7.68-7.14-.27-19.2-.25-38.41.02-57.61.09-6.2-2.29-8.06-8.28-8.03-32.92.21-65.85.23-98.77-.02-6.5-.05-9.06,1.82-8.93,8.62.36,18.41.5,36.85-.03,55.25-.22,7.63,2.67,9.16,9.54,8.98,16.06-.43,32.14-.14,48.2-.14Z"/>
    <path class="cls-2" d="m283.07,417.98c-21.55,0-43.1.07-64.64-.03-12.76-.06-16.21-3.35-16.26-15.82-.11-29.38.15-58.76-.1-88.14-.09-11.02,4.95-15.63,15.65-15.61,43.88.1,87.76.08,131.64.02,10.88-.02,15.45,5.35,15.38,16.04-.19,29.38-.13,58.76,0,88.14.05,10.86-5.06,15.59-15.85,15.47-21.94-.24-43.88-.07-65.82-.07Zm-.38-23.52c16.43,0,32.86-.3,49.28.14,6.88.19,9.64-1.31,9.41-8.93-.57-18.36-.41-36.76-.05-55.14.13-6.46-1.58-8.88-8.47-8.82-32.85.32-65.71.29-98.56.02-6.48-.05-8.96,1.67-8.81,8.51.4,18.76.36,37.55.04,56.31-.1,6.05,1.62,8.18,7.89,8.03,16.42-.39,32.85-.13,49.28-.13Z"/>
    <path class="cls-2" d="m510.58,232.44c-21.17,0-42.34.07-63.51-.02-14.01-.06-17.71-3.62-17.75-17.07-.08-28.62-.08-57.23.02-85.85.04-13.34,3.38-16.76,16.61-16.79,43.13-.08,86.25-.09,129.38,0,13.19.03,16.51,3.45,16.56,16.84.09,28.62.1,57.23.02,85.85-.04,13.05-3.75,16.91-16.63,17.01-21.56.15-43.13.04-64.69.04Zm-.05-96.2c-16.46,0-32.93.17-49.38-.09-5.62-.09-8.54.87-8.4,7.56.41,19.19.39,38.41.02,57.6-.13,6.71,2.92,7.61,8.51,7.58,32.92-.17,65.85-.19,98.77.01,5.76.03,8.51-1.17,8.39-7.73-.36-19.2-.39-38.41.02-57.6.15-6.84-3.08-7.5-8.54-7.42-16.46.23-32.92.08-49.38.08Z"/>
    <path class="cls-2" d="m283.37,232.44c-21.17,0-42.34.07-63.51-.02-14.01-.06-17.71-3.62-17.75-17.07-.08-28.62-.08-57.23.02-85.85.04-13.34,3.38-16.76,16.61-16.79,43.13-.08,86.25-.09,129.38,0,13.19.03,16.51,3.45,16.56,16.84.09,28.62.1,57.23.02,85.85-.04,13.05-3.75,16.91-16.63,17.01-21.56.15-43.13.04-64.69.04Zm-.05-96.2c-16.46,0-32.93.17-49.38-.09-5.62-.09-8.54.87-8.4,7.56.41,19.19.39,38.41.02,57.6-.13,6.71,2.92,7.61,8.51,7.58,32.92-.17,65.85-.19,98.77.01,5.76.03,8.51-1.17,8.39-7.73-.36-19.2-.39-38.41.02-57.6.15-6.84-3.08-7.5-8.54-7.42-16.46.23-32.92.08-49.38.08Z"/>
  </g>
  <rect class="cls-2" x="120.36" y="30.57" width="553.33" height="31.16" rx="11.35" ry="11.35"/>
  <path class="cls-1" d="m665,762.5h-186c-14.54-9.37-23.37-22.7-26.5-40-.02-69.04-.68-138.04-2-207-2.47-5.49-6.64-8.99-12.5-10.5-27.67-.67-55.33-.67-83,0-6.17,2.17-10.33,6.33-12.5,12.5-.33,67.67-.67,135.33-1,203-2.53,18.08-11.36,32.08-26.5,42h-187c-14.85-9.67-23.68-23.34-26.5-41-.48-120.85-.65-529.64-.52-674.02,0-9.38,7.62-16.98,17-16.98h21.02c-.17,125,0,563,.5,688,2.08,5.75,5.91,9.91,11.5,12.5,23.63,1.14,47.3,1.64,71,1.5,21.67-.17,43.33-.33,65-.5,10.53-1.2,16.36-7.03,17.5-17.5.33-67.67.67-135.33,1-203,6.27-24.4,21.77-39.23,46.5-44.5,30.33-.67,60.67-.67,91,0,26.4,5.73,41.9,21.9,46.5,48.5.33,67.33.67,134.67,1,202,2.51,8.85,8.35,13.68,17.5,14.5,43.33.67,86.67.67,130,0,8.2-1.2,13.7-5.7,16.5-13.5.5-125,.67-563,.5-688h21.02c9.38,0,16.99,7.59,17,16.98.13,143.26-.04,550.5-.52,670.02-1.66,19.78-10.82,34.78-27.5,45Z"/>
</svg>