<?xml version="1.0" encoding="UTF-8"?>
<svg id="Calque_1" data-name="Calque 1" xmlns="http://www.w3.org/2000/svg" viewBox="0 0 794 763">
  <defs>
    <style>
      .cls-1 {
        isolation: isolate;
        opacity: .97;
      }

      .cls-2 {
        fill: #888894;
        stroke-width: 0px;
      }
    </style>
  </defs>
  <g class="cls-1">
    <path class="cls-2" d="m285.58,10.73c13.4,4.34,26.73,8.91,40.2,12.99,113.82,34.51,227.68,68.94,341.51,103.4,11.2,3.39,13.21,6.12,13.23,17.81.02,12.72.03,25.45,0,38.17-.03,11.58-3.89,15.52-15.29,15.55-14.16.04-28.31.01-43.43.01,0,10.86,0,21.29,0,31.71,0,8.07.05,16.15-.01,24.22-.08,9.64-2.89,12.85-12.62,14.6-7.52,1.35-12.92,7.69-10.29,13.87,1.64,3.85,5.97,7.7,9.95,9.11,4.94,1.75,9.44-1.48,11.72-6.48.79-1.72.96-3.74,1.31-5.65,1.29-7.02,6.21-11.3,12.53-10.83,6.63.5,10.99,5.83,10.84,13.25-.34,16.46-13.68,30.98-30.65,33.37-16.48,2.32-33.19-8.41-38.13-24.48-4.97-16.15,1.73-33.08,16.93-41.23,3.87-2.07,5.11-4.24,5.02-8.41-.27-13.7-.17-27.4-.24-41.1,0-.42-.36-.84-.87-1.95h-7.58c-50.65,0-101.3,0-151.95,0-2.44,0-4.97.24-7.31-.27-5.93-1.29-9.57-5.1-9.65-11.25-.08-6.5,3.63-10.48,9.94-11.73,2.36-.47,4.88-.22,7.32-.22,69.74,0,139.47,0,209.21,0h9.25v-23.06H176.07v23.06c2.61,0,5.44,0,8.27,0,65.58,0,131.15,0,196.73,0,2.2,0,4.42-.13,6.6.1,6.47.7,10.94,5.58,10.9,11.7-.04,6.11-4.53,11.23-11.04,11.52-8.79.4-17.61.16-26.42.16-22.46,0-44.91,0-68.19,0v9.16c0,147.55,0,295.09,0,442.64,0,12.41-3.91,18.22-12.08,17.98-7.9-.24-11.41-5.74-11.41-17.91,0-147.06,0-294.11,0-441.17v-10.11h-46.49v492.74c12.99,0,25.87,0,38.76,0,10.52,0,21.05-.16,31.56.04,19.31.38,34.32,15.27,34.83,34.51.21,7.82.22,15.66,0,23.49-.23,7.78-4.66,12.35-12.48,12.36-46.49.12-92.98.12-139.47,0-7.78-.02-12.13-4.64-12.36-12.47-.21-7.09-.1-14.19-.05-21.29.16-19.54,11.94-33.23,31.33-36.47,1.14-.19,2.29-.32,3.64-.51V199.16h-23.23c0,10.81.04,21.5,0,32.19-.09,22.97-14.71,37.69-37.53,37.78-13.95.06-27.89.06-41.84,0-10.47-.05-14.56-4.17-14.57-14.77-.04-37.19-.19-74.39.22-111.57.05-4.37,2.19-9.79,5.23-12.87,37.64-38.14,75.62-75.94,113.53-113.81,1.86-1.86,3.86-3.57,5.8-5.36,26.43,0,52.86,0,79.28,0Zm7.57,117.2h291.6c.09-.38.18-.76.27-1.14-97.14-29.44-194.29-58.88-291.87-88.45v89.59Zm-169.48-.26h145.2V34.59h-46.42c0,2.75,0,5.13,0,7.51,0,16.37.08,32.75-.04,49.12-.06,8.11-4.61,13.25-11.44,13.42-7.1.17-11.81-5.14-12-13.61-.06-2.69-.01-5.38-.01-8.06,0-10.11,0-20.21,0-30.68-25.5,25.53-50.31,50.37-75.29,75.39Zm-18.14,24.36v93.61c11.02,0,21.52.06,32.02-.02,10.12-.07,14.35-4.21,14.41-14.19.09-14.43.02-28.86.02-43.3,0-11.92,0-23.84,0-36.1h-46.45Zm81.71,586.47h117.42c0-3.84.13-7.23-.03-10.61-.37-7.78-4.67-12.31-12.47-12.35-30.77-.14-61.55-.14-92.32,0-7.86.03-12.19,4.5-12.58,12.23-.17,3.39-.03,6.79-.03,10.73Z"/>
    <path class="cls-2" d="m694.64,637.4h-53.36v106.9h53.36c0-1.96,0-3.92,0-5.89,0-9.88-.12-19.76.08-29.63.1-5.1,3.65-8.59,8.3-8.9,4.61-.3,9.21,3,9.3,7.78.29,15.65.29,31.31,0,46.96-.08,4.33-3.29,6.97-7.62,7.71-1.63.28-3.35.14-5.02.14-68.96,0-137.92,0-206.88,0-10.31,0-12.92-2.58-12.92-12.81,0-86.85,0-173.71,0-260.56,0-.19,0-.37,0-.56.02-8.15,2.98-12.3,8.82-12.38,5.87-.09,9.07,4.16,9.08,12.13.01,16.22,0,32.43,0,48.65v10.38h53.69v-6.02c0-29.08,0-58.15,0-87.23,0-1.49-.06-2.99.03-4.47.33-5.63,4.06-9.37,9.14-9.24,4.85.13,8.54,3.76,8.66,9.13.19,8.57.05,17.14.05,26.17h53.72c0-8.33-.09-16.82.03-25.31.09-6.48,4.49-10.69,10.07-9.92,4.75.65,7.7,4.31,7.77,10.01.1,8.35.03,16.7.03,25.36h53.7c0-4.4,0-8.96,0-13.52,0-4.47-.17-8.96.1-13.42.31-4.99,4.03-8.41,8.7-8.49,4.64-.08,8.42,3.32,9.01,8.21.18,1.47.09,2.98.09,4.47,0,72.13,0,144.26,0,216.39,0,1.12.05,2.24-.03,3.35-.37,5.35-3.89,9-8.73,9.11-5.06.12-8.97-3.65-9.07-9.28-.18-9.32-.06-18.64-.06-27.96,0-2.22,0-4.44,0-7.25Zm-143.57,106.93v-106.68h-53v106.68h53Zm18.69-106.89v106.68h53v-106.68h-53Zm52.83-89.85v-53.2h-52.8v53.2h52.8Zm18.61-.28h53v-53h-53v53Zm-143.03,18.54v53h53v-53h-53Zm124.49,53.2v-53h-52.99v53h52.99Zm18.69-53.2v53h53v-53h-53Z"/>
  </g>
</svg>