<?xml version="1.0" encoding="UTF-8"?>
<!DOCTYPE svg PUBLIC "-//W3C//DTD SVG 1.1//EN" "http://www.w3.org/Graphics/SVG/1.1/DTD/svg11.dtd">
<svg xmlns="http://www.w3.org/2000/svg" version="1.1" width="794px" height="763px" style="shape-rendering:geometricPrecision; text-rendering:geometricPrecision; image-rendering:optimizeQuality; fill-rule:evenodd; clip-rule:evenodd" xmlns:xlink="http://www.w3.org/1999/xlink">
<g><path style="opacity:0.972" fill="#888894" d="M 793.5,325.5 C 793.5,329.167 793.5,332.833 793.5,336.5C 787.159,342.677 781.326,349.344 776,356.5C 775.163,358.007 773.996,358.507 772.5,358C 651.872,255.041 531.539,151.708 411.5,48C 402.285,39.7969 392.951,39.7969 383.5,48C 263.461,151.708 143.128,255.041 22.5,358C 21.0039,358.507 19.8373,358.007 19,356.5C 12.6353,348.642 6.13534,340.975 -0.5,333.5C -0.5,331.5 -0.5,329.5 -0.5,327.5C 120.841,224.148 241.841,120.315 362.5,16C 379.725,3.80798 398.392,1.14132 418.5,8C 423.997,10.2454 428.997,13.2454 433.5,17C 553.078,120.418 673.078,223.251 793.5,325.5 Z"/></g>
<g><path style="opacity:0.977" fill="#888894" d="M 665.5,762.5 C 603.5,762.5 541.5,762.5 479.5,762.5C 464.963,753.131 456.129,739.797 453,722.5C 452.983,653.464 452.317,584.464 451,515.5C 448.532,510.011 444.365,506.511 438.5,505C 410.833,504.333 383.167,504.333 355.5,505C 349.333,507.167 345.167,511.333 343,517.5C 342.667,585.167 342.333,652.833 342,720.5C 339.471,738.575 330.637,752.575 315.5,762.5C 253.167,762.5 190.833,762.5 128.5,762.5C 113.653,752.825 104.819,739.158 102,721.5C 101.5,595.5 101.333,469.5 101.5,343.5C 114.167,343.5 126.833,343.5 139.5,343.5C 139.333,468.5 139.5,593.5 140,718.5C 142.079,724.247 145.912,728.414 151.5,731C 175.132,732.136 198.799,732.636 222.5,732.5C 244.167,732.333 265.833,732.167 287.5,732C 298.028,730.805 303.861,724.972 305,714.5C 305.333,646.833 305.667,579.167 306,511.5C 312.271,487.1 327.771,472.266 352.5,467C 382.833,466.333 413.167,466.333 443.5,467C 469.896,472.73 485.396,488.896 490,515.5C 490.333,582.833 490.667,650.167 491,717.5C 493.513,726.347 499.347,731.181 508.5,732C 551.833,732.667 595.167,732.667 638.5,732C 646.7,730.8 652.2,726.3 655,718.5C 655.5,593.5 655.667,468.5 655.5,343.5C 668.167,343.5 680.833,343.5 693.5,343.5C 693.667,468.167 693.5,592.834 693,717.5C 691.343,737.277 682.177,752.277 665.5,762.5 Z"/></g>
</svg>
