<svg xmlns="http://www.w3.org/2000/svg" xmlns:xlink="http://www.w3.org/1999/xlink" version="1.1" width="1000" height="1000" viewBox="0 0 1000 1000" xml:space="preserve">
<desc>Created with Fabric.js 3.5.0</desc>
<defs>
</defs>
<rect x="0" y="0" width="100%" height="100%" fill="#ffffff"/>
<g transform="matrix(37.8788 0 0 37.8788 500.0001 500.0001)" id="788562">
<g style="" vector-effect="non-scaling-stroke">
		<g transform="matrix(-1 0 0 -1 0 0)">
<circle style="stroke: none; stroke-width: 1; stroke-dasharray: none; stroke-linecap: butt; stroke-dashoffset: 0; stroke-linejoin: miter; stroke-miterlimit: 4; is-custom-font: none; font-file-url: none; fill: rgb(212 32 73); fill-rule: evenodd; opacity: 1;" cx="0" cy="0" r="12"/>
</g>
		<g transform="matrix(1 0 0 1 0 0)">
<path style="stroke: none; stroke-width: 1; stroke-dasharray: none; stroke-linecap: butt; stroke-dashoffset: 0; stroke-linejoin: miter; stroke-miterlimit: 4; is-custom-font: none; font-file-url: none; fill: rgb(255,255,255); fill-rule: nonzero; opacity: 1;" transform=" translate(-12, -12)" d="M 14.293 15.293 a 1 1 0 0 0 1.414 1.414 l 4 -4 a 1 1 0 0 0 0 -1.414 l -4 -4 a 1 1 0 0 0 -1.414 1.414 L 17.586 12 l -3.293 3.293 Z M 6.414 12 l 3.293 -3.293 a 1 1 0 0 0 -1.414 -1.414 l -4 4 a 1 1 0 0 0 0 1.414 l 4 4 a 1 1 0 0 0 1.414 -1.414 L 6.414 12 Z" stroke-linecap="round"/>
</g>
</g>
</g>
</svg>