<svg width="163" height="42" viewBox="0 0 163 42" fill="none" xmlns="http://www.w3.org/2000/svg">
<g clip-path="url(#clip0_221_655)">
<path d="M14.6869 22.6705H8.74966L11.9058 12.3969L14.6869 22.6705ZM5.96852 33.069L7.84345 26.7924H15.4682L17.3431 33.069H23.6553L16.9369 9.27422C16.5619 7.71289 15.8119 7.21326 14.1557 7.21326H4.84356V9.3679H5.59354C6.71849 9.3679 7.28097 9.7114 7.28097 10.5857C7.28097 11.1166 7.28097 11.4913 6.71849 12.7716L0 33.069" fill="#082623"/>
<path d="M31.6237 33.069V9.11809C31.6237 7.86902 30.8738 7.21326 29.5926 7.21326H23.8115V9.3679H24.1865C25.3115 9.3679 25.8739 9.8363 25.8739 10.8356V33.069M42.0296 33.069V9.11809C42.0296 7.86902 41.2796 7.21326 39.9984 7.21326H34.2174V9.3679H34.5924C35.7173 9.3679 36.2798 9.8363 36.2798 10.8356V33.069" fill="#082623"/>
<path d="M52.6538 9.49297C52.6538 7.7755 51.3413 6.77625 49.3101 6.77625C47.0915 6.77625 45.9665 7.7755 45.9665 9.49297C45.9665 11.2417 47.0915 12.2722 49.3101 12.2722C51.3413 12.2722 52.6538 11.2417 52.6538 9.49297ZM52.4663 33.0692V15.6134C52.4663 14.3956 51.7163 13.7086 50.5913 13.7086H44.8103V15.8008H45.1853C46.3102 15.8008 46.6852 16.2692 46.6852 17.3309V33.0692M66.2157 23.6699V27.542C65.0908 28.6662 63.8096 29.2907 62.6846 29.2907C61.5597 29.2907 60.9972 28.7599 60.9972 27.2922C60.9972 25.6997 61.3722 25.0751 62.6846 24.5755C63.6221 24.2008 64.5595 23.951 66.2157 23.6699ZM58.0285 19.0484L58.591 18.8298C60.091 18.2365 60.9972 18.0179 62.1221 17.7993C62.6846 17.7368 63.4346 17.6432 63.8096 17.6432C65.6845 17.6432 66.2157 18.2677 66.2157 19.9539V20.4223C63.6221 20.8595 62.8721 20.9844 61.3722 21.3279C60.6222 21.5153 59.8722 21.7651 59.1535 22.0774C56.7473 23.0454 55.6224 24.8878 55.6224 27.8231C55.6224 31.4766 57.1223 33.2253 60.466 33.2253C61.7784 33.2253 63.0596 32.913 63.9971 32.3197C64.9345 31.8826 65.3095 31.664 66.4032 30.6335V31.2268C66.4032 32.4446 66.9657 33.0067 68.0907 33.0067H73.6842V31.0082H73.4967C72.3717 31.0082 71.8093 30.5086 71.8093 29.5093V20.0476C71.8093 15.1138 70.1218 13.4275 65.3095 13.4275C63.6221 13.4275 62.1534 13.6149 60.6534 13.9584C59.1535 14.3019 58.4348 14.5829 56.7473 15.4573M82.4026 33.0692V19.9539C83.7151 18.7361 84.6213 18.2677 85.9337 18.2677C87.2462 18.2677 87.6212 18.8298 87.6212 20.7971V33.0692H93.4022V19.8603C93.4022 17.1435 93.0272 15.9881 92.2772 14.9577C91.3398 13.9584 90.2461 13.49 88.5586 13.49C86.34 13.49 84.6525 14.3019 82.0589 16.5502V15.5197C82.0589 14.3019 81.4964 13.7086 80.3714 13.7086H74.7779V15.8008H74.9654C76.0904 15.8008 76.6528 16.2692 76.6528 17.3309V33.0692" fill="#082623"/>
<path d="M111.247 29.4315H102.771L111.035 17.7855V13.7622H98.7454C97.2621 13.7622 96.6264 14.3975 96.6264 15.8797V19.4794H98.7454V19.0559C98.7454 17.9971 99.3811 17.5736 100.441 17.5736H104.89L96.4146 29.2197V33.2429H111.247" fill="#082623"/>
<path d="M144.091 31.9727V10.1627C144.091 8.46874 143.244 7.83355 141.761 7.83355H136.675V10.1627H137.311C138.158 10.1627 138.582 10.5862 138.582 11.645V31.9727H144.091ZM147.058 31.9727H152.355V15.4564C152.355 13.7624 151.508 13.1272 150.025 13.1272H147.058V31.9727ZM135.616 31.9727V13.1272H132.649C130.954 13.1272 130.318 13.7624 130.318 15.4564V31.9727H135.616ZM158.924 20.9619C158.924 31.1257 151.508 38.7485 141.337 38.7485C131.166 38.7485 123.749 31.3374 123.749 20.9619C123.749 10.798 131.166 3.1751 141.337 3.1751C151.508 3.1751 158.924 10.798 158.924 20.9619ZM162.314 20.9619C162.314 8.89231 153.415 -0.00109482 141.337 -0.00109482C129.471 -0.00109482 120.359 8.89231 120.359 20.9619C120.359 33.0314 129.471 41.9247 141.337 41.9247C153.415 41.9247 162.314 33.0314 162.314 20.9619Z" fill="#082623"/>
</g>
<defs>
<clipPath id="clip0_221_655">
<rect width="162.4" height="42" fill="white"/>
</clipPath>
</defs>
</svg>
