<svg width="192" height="42" viewBox="0 0 192 42" fill="none" xmlns="http://www.w3.org/2000/svg">
<g clip-path="url(#clip0_221_664)">
<mask id="mask0_221_664" style="mask-type:luminance" maskUnits="userSpaceOnUse" x="0" y="0" width="192" height="42">
<path d="M191.548 0H0.63916V42H191.548V0Z" fill="white"/>
</mask>
<g mask="url(#mask0_221_664)">
<path d="M60.5459 12.6505C58.2283 12.6505 56.2766 13.3416 54.7315 14.6427V4.84363H47.9414V34.5662H54.203V32.7363C55.7481 34.2407 57.8217 35.0947 60.3832 35.0947C66.6042 35.0947 71.0362 30.297 71.0362 23.8726C71.0362 17.4484 66.7262 12.6505 60.5459 12.6505ZM59.4074 29.1177C56.4392 29.1177 54.4063 26.9628 54.4063 23.8726C54.4063 20.7418 56.3986 18.5868 59.4074 18.5868C62.2536 18.5868 64.3273 20.8231 64.3273 23.8726C64.3273 26.9221 62.2536 29.1177 59.4074 29.1177Z" fill="#082623"/>
<path d="M90.1458 15.3747C88.6415 13.8703 86.6085 13.057 83.9657 13.057C77.7446 13.057 73.272 17.4483 73.272 23.8726C73.272 30.297 77.7446 35.0947 83.9657 35.0947C86.6085 35.0947 88.6415 34.2002 90.1458 32.6144V34.5661H96.4075V13.1383H90.1458V15.3747ZM84.9415 29.1177C82.0546 29.1177 80.0216 26.9221 80.0216 23.8726C80.0216 20.8231 82.0952 18.5868 84.9415 18.5868C87.9095 18.5868 89.9019 20.7417 89.9019 23.8726C89.9019 26.9628 87.9095 29.1177 84.9415 29.1177Z" fill="#082623"/>
<path d="M100.885 34.5663H107.675V4.84375H100.885V34.5663Z" fill="#082623"/>
<path d="M122.358 12.6506C115.527 12.6506 110.648 17.4484 110.648 23.8728C110.648 30.2563 115.527 35.0949 122.358 35.0949C129.229 35.0949 134.109 30.2563 134.109 23.8728C134.109 17.4484 129.229 12.6506 122.358 12.6506ZM122.398 29.0772C119.43 29.0772 117.479 26.8816 117.479 23.8728C117.479 20.7826 119.43 18.6682 122.398 18.6682C125.367 18.6682 127.278 20.7826 127.278 23.8319C127.278 26.9221 125.326 29.0772 122.398 29.0772Z" fill="#082623"/>
<path d="M140.55 1.91626C138.151 1.91626 136.094 3.66463 136.094 6.10424C136.094 8.54385 138.151 10.2514 140.55 10.2514C142.949 10.2514 144.82 8.54385 144.82 6.10424C144.82 3.66463 142.949 1.91626 140.55 1.91626Z" fill="#082623"/>
<path d="M137.135 34.5661H143.925V13.1383H137.135V34.5661Z" fill="#082623"/>
<path d="M154.293 18.9937C154.293 18.0992 154.984 17.5705 156.367 17.5705C157.79 17.5705 158.807 18.2616 159.294 19.6033L164.906 17.4078C164.052 14.399 160.88 12.6506 156.489 12.6506C151.081 12.6506 147.666 15.1716 147.666 19.3189C147.666 26.6784 158.847 25.0518 158.847 28.4266C158.847 29.4025 158.034 30.0124 156.489 30.0124C154.293 30.0124 152.87 28.996 152.301 27.207L146.69 29.3619C147.95 33.1026 151.406 35.0949 156.245 35.0949C161.897 35.0949 165.475 32.4115 165.475 27.9795C165.475 20.0915 154.293 22.043 154.293 18.9937Z" fill="#082623"/>
<path d="M189.626 23.4253C189.626 18.1395 185.479 12.6097 178.485 12.6097C172.305 12.6097 167.344 17.6923 167.344 23.8725C167.344 30.2562 171.817 35.0948 178.892 35.0948C183.561 35.0948 186.318 33.2954 187.971 31.2443L184.067 27.3314C182.848 28.8402 181.494 29.565 179.095 29.565C176.534 29.565 174.623 28.2639 173.931 25.8649H189.463C189.545 25.2957 189.626 24.4826 189.626 23.4253ZM173.85 21.6363C174.419 19.034 176.168 17.6923 178.648 17.6923C181.128 17.6923 182.755 19.1967 183.324 21.6363H173.85Z" fill="#082623"/>
<mask id="mask1_221_664" style="mask-type:luminance" maskUnits="userSpaceOnUse" x="-2" y="-2" width="47" height="47">
<path d="M21.8677 44.1759L-1.07892 21.2292L21.8678 -1.71742L44.8144 21.2293L21.8677 44.1759Z" fill="white"/>
</mask>
<g mask="url(#mask1_221_664)">
<mask id="mask2_221_664" style="mask-type:luminance" maskUnits="userSpaceOnUse" x="-2" y="-2" width="47" height="47">
<path d="M21.7957 44.1758L-1.15094 21.2291L21.7958 -1.71754L44.7424 21.2292L21.7957 44.1758Z" fill="white"/>
</mask>
<g mask="url(#mask2_221_664)">
<mask id="mask3_221_664" style="mask-type:luminance" maskUnits="userSpaceOnUse" x="-2" y="-2" width="47" height="47">
<path d="M21.7957 44.1758L-1.15094 21.2291L21.7958 -1.71754L44.7424 21.2292L21.7957 44.1758Z" fill="white"/>
</mask>
<g mask="url(#mask3_221_664)">
<mask id="mask4_221_664" style="mask-type:alpha" maskUnits="userSpaceOnUse" x="3" y="2" width="38" height="38">
<path d="M22.9295 3.00123C22.3026 2.3744 21.2862 2.3744 20.6594 3.00122L3.58551 20.0751C2.95855 20.702 2.95855 21.7183 3.58551 22.3451L20.6593 39.4191C21.2861 40.0459 22.3025 40.0459 22.9294 39.4191L40.0032 22.3452C40.6302 21.7184 40.6302 20.7021 40.0032 20.0752L22.9295 3.00123Z" fill="#151F6D"/>
</mask>
<g mask="url(#mask4_221_664)">
<path d="M2.4341 21.2292L8.18441 15.479L13.4119 20.7065L7.66162 26.4568L2.4341 21.2292Z" fill="#082623"/>
</g>
<mask id="mask5_221_664" style="mask-type:alpha" maskUnits="userSpaceOnUse" x="1" y="1" width="39" height="38">
<path d="M21.5669 1.63856C20.9401 1.01173 19.9237 1.01173 19.2968 1.63855L2.22296 18.7125C1.596 19.3393 1.596 20.3556 2.22296 20.9824L19.2967 38.0564C19.9235 38.6832 20.94 38.6832 21.5668 38.0564L38.6407 20.9825C39.2676 20.3557 39.2676 19.3394 38.6407 18.7126L21.5669 1.63856Z" fill="#151F6D"/>
</mask>
<g mask="url(#mask5_221_664)">
<path d="M7.75803 15.9045L16.4706 7.19194L22.2209 12.9422L13.5083 21.6548L7.75803 15.9045Z" fill="#082623"/>
</g>
<path d="M21.0649 29.8205L25.9691 24.9163L31.7194 30.6666L26.8152 35.5708L21.0649 29.8205Z" fill="#082623"/>
<path d="M20.2401 11.8132L25.9904 6.0629L34.7029 14.7755L28.9526 20.5258L20.2401 11.8132Z" fill="#082623"/>
<mask id="mask6_221_664" style="mask-type:alpha" maskUnits="userSpaceOnUse" x="3" y="2" width="38" height="38">
<path d="M22.9295 3.00123C22.3026 2.3744 21.2862 2.3744 20.6594 3.00122L3.58551 20.0751C2.95855 20.702 2.95855 21.7183 3.58551 22.3451L20.6593 39.4191C21.2861 40.0459 22.3025 40.0459 22.9294 39.4191L40.0032 22.3452C40.6302 21.7184 40.6302 20.7021 40.0032 20.0752L22.9295 3.00123Z" fill="#151F6D"/>
</mask>
<g mask="url(#mask6_221_664)">
<path d="M28.9532 20.5261L34.7035 14.7758L41.1566 21.229L35.4062 26.9792L28.9532 20.5261Z" fill="#082623"/>
</g>
<mask id="mask7_221_664" style="mask-type:alpha" maskUnits="userSpaceOnUse" x="3" y="2" width="38" height="38">
<path d="M22.9295 3.00123C22.3026 2.3744 21.2862 2.3744 20.6594 3.00122L3.58551 20.0751C2.95855 20.702 2.95855 21.7183 3.58551 22.3451L20.6593 39.4191C21.2861 40.0459 22.3025 40.0459 22.9294 39.4191L40.0032 22.3452C40.6302 21.7184 40.6302 20.7021 40.0032 20.0752L22.9295 3.00123Z" fill="#151F6D"/>
</mask>
<g mask="url(#mask7_221_664)">
<path d="M7.27451 26.0693L13.0248 20.3191L27.5457 34.8401L21.7954 40.5903L7.27451 26.0693Z" fill="#082623"/>
</g>
<mask id="mask8_221_664" style="mask-type:alpha" maskUnits="userSpaceOnUse" x="3" y="2" width="38" height="38">
<path d="M22.9295 3.00123C22.3026 2.3744 21.2862 2.3744 20.6594 3.00122L3.58551 20.0751C2.95855 20.702 2.95855 21.7183 3.58551 22.3451L20.6593 39.4191C21.2861 40.0459 22.3025 40.0459 22.9294 39.4191L40.0032 22.3452C40.6302 21.7184 40.6302 20.7021 40.0032 20.0752L22.9295 3.00123Z" fill="#151F6D"/>
</mask>
<g mask="url(#mask8_221_664)">
<path d="M15.3421 8.32098L21.7953 1.86789L27.0352 7.10782L20.582 13.5609L15.3421 8.32098Z" fill="#082623"/>
</g>
</g>
</g>
<mask id="mask9_221_664" style="mask-type:luminance" maskUnits="userSpaceOnUse" x="-2" y="-2" width="47" height="47">
<path d="M21.7959 44.1041L-1.1507 21.1574L21.796 -1.7892L44.7426 21.1575L21.7959 44.1041Z" fill="white"/>
</mask>
<g mask="url(#mask9_221_664)">
<mask id="mask10_221_664" style="mask-type:luminance" maskUnits="userSpaceOnUse" x="-2" y="-2" width="47" height="47">
<path d="M21.7959 44.1041L-1.1507 21.1574L21.796 -1.7892L44.7426 21.1575L21.7959 44.1041Z" fill="white"/>
</mask>
<g mask="url(#mask10_221_664)">
<mask id="mask11_221_664" style="mask-type:alpha" maskUnits="userSpaceOnUse" x="3" y="2" width="38" height="38">
<path d="M22.9299 2.92945C22.3031 2.30262 21.2867 2.30262 20.6599 2.92944L3.586 20.0034C2.95904 20.6302 2.95903 21.6465 3.58599 22.2733L20.6598 39.3473C21.2866 39.9741 22.303 39.9741 22.9298 39.3473L40.0037 22.2734C40.6307 21.6466 40.6307 20.6303 40.0037 20.0035L22.9299 2.92945Z" fill="#151F6D"/>
</mask>
<g mask="url(#mask11_221_664)">
<path d="M2.43483 21.1575L8.18514 15.4072L13.4127 20.6347L7.66235 26.385L2.43483 21.1575Z" fill="#082623"/>
</g>
<mask id="mask12_221_664" style="mask-type:alpha" maskUnits="userSpaceOnUse" x="1" y="1" width="39" height="38">
<path d="M21.5674 1.56678C20.9406 0.939954 19.9241 0.939951 19.2973 1.56677L2.22345 18.6407C1.59649 19.2675 1.59648 20.2838 2.22344 20.9106L19.2972 37.9846C19.924 38.6115 20.9405 38.6115 21.5673 37.9847L38.6412 20.9107C39.2681 20.2839 39.2681 19.2676 38.6412 18.6408L21.5674 1.56678Z" fill="#151F6D"/>
</mask>
<g mask="url(#mask12_221_664)">
<path d="M7.75876 15.8327L16.4713 7.12016L22.2216 12.8705L13.509 21.583L7.75876 15.8327Z" fill="#082623"/>
</g>
<path d="M21.0654 29.7487L25.9696 24.8445L31.7199 30.5948L26.8157 35.499L21.0654 29.7487Z" fill="#082623"/>
<path d="M20.2406 11.7414L25.9909 5.99112L34.7034 14.7037L28.9531 20.454L20.2406 11.7414Z" fill="#082623"/>
<mask id="mask13_221_664" style="mask-type:alpha" maskUnits="userSpaceOnUse" x="3" y="2" width="38" height="38">
<path d="M22.9299 2.92945C22.3031 2.30262 21.2867 2.30262 20.6599 2.92944L3.586 20.0034C2.95904 20.6302 2.95903 21.6465 3.58599 22.2733L20.6598 39.3473C21.2866 39.9741 22.303 39.9741 22.9298 39.3473L40.0037 22.2734C40.6307 21.6466 40.6307 20.6303 40.0037 20.0035L22.9299 2.92945Z" fill="#151F6D"/>
</mask>
<g mask="url(#mask13_221_664)">
<path d="M28.9534 20.4543L34.7037 14.7041L41.1568 21.1572L35.4065 26.9075L28.9534 20.4543Z" fill="#082623"/>
</g>
<mask id="mask14_221_664" style="mask-type:alpha" maskUnits="userSpaceOnUse" x="3" y="2" width="38" height="38">
<path d="M22.9299 2.92945C22.3031 2.30262 21.2867 2.30262 20.6599 2.92944L3.586 20.0034C2.95904 20.6302 2.95903 21.6465 3.58599 22.2733L20.6598 39.3473C21.2866 39.9741 22.303 39.9741 22.9298 39.3473L40.0037 22.2734C40.6307 21.6466 40.6307 20.6303 40.0037 20.0035L22.9299 2.92945Z" fill="#151F6D"/>
</mask>
<g mask="url(#mask14_221_664)">
<path d="M7.27475 25.9976L13.0251 20.2473L27.546 34.7683L21.7957 40.5186L7.27475 25.9976Z" fill="#082623"/>
</g>
<mask id="mask15_221_664" style="mask-type:alpha" maskUnits="userSpaceOnUse" x="3" y="2" width="38" height="38">
<path d="M22.9299 2.92945C22.3031 2.30262 21.2867 2.30262 20.6599 2.92944L3.586 20.0034C2.95904 20.6302 2.95903 21.6465 3.58599 22.2733L20.6598 39.3473C21.2866 39.9741 22.303 39.9741 22.9298 39.3473L40.0037 22.2734C40.6307 21.6466 40.6307 20.6303 40.0037 20.0035L22.9299 2.92945Z" fill="#151F6D"/>
</mask>
<g mask="url(#mask15_221_664)">
<path d="M15.3421 8.24932L21.7953 1.79623L27.0352 7.03617L20.582 13.4893L15.3421 8.24932Z" fill="#082623"/>
</g>
</g>
</g>
<mask id="mask16_221_664" style="mask-type:luminance" maskUnits="userSpaceOnUse" x="-2" y="-2" width="47" height="47">
<path d="M21.7957 44.2476L-1.15094 21.3008L21.7958 -1.64577L44.7424 21.301L21.7957 44.2476Z" fill="white"/>
</mask>
<g mask="url(#mask16_221_664)">
<mask id="mask17_221_664" style="mask-type:luminance" maskUnits="userSpaceOnUse" x="-2" y="-2" width="47" height="47">
<path d="M21.7957 44.2476L-1.15094 21.3008L21.7958 -1.64577L44.7424 21.301L21.7957 44.2476Z" fill="white"/>
</mask>
<g mask="url(#mask17_221_664)">
<mask id="mask18_221_664" style="mask-type:alpha" maskUnits="userSpaceOnUse" x="3" y="2" width="38" height="38">
<path d="M22.9295 3.07288C22.3026 2.44606 21.2862 2.44605 20.6594 3.07288L3.58551 20.1468C2.95855 20.7736 2.95855 21.7899 3.58551 22.4167L20.6593 39.4907C21.2861 40.1176 22.3025 40.1176 22.9294 39.4908L40.0032 22.4168C40.6302 21.79 40.6302 20.7737 40.0032 20.1469L22.9295 3.07288Z" fill="#151F6D"/>
</mask>
<g mask="url(#mask18_221_664)">
<path d="M2.43434 21.3008L8.18465 15.5505L13.4122 20.778L7.66187 26.5283L2.43434 21.3008Z" fill="#082623"/>
</g>
<mask id="mask19_221_664" style="mask-type:alpha" maskUnits="userSpaceOnUse" x="1" y="1" width="39" height="38">
<path d="M21.5667 1.71033C20.9398 1.08351 19.9234 1.08351 19.2966 1.71033L2.22272 18.7842C1.59576 19.4111 1.59575 20.4274 2.22271 21.0542L19.2965 38.1282C19.9233 38.755 20.9397 38.755 21.5666 38.1282L38.6404 21.0543C39.2674 20.4275 39.2674 19.4112 38.6404 18.7843L21.5667 1.71033Z" fill="#151F6D"/>
</mask>
<g mask="url(#mask19_221_664)">
<path d="M7.75851 15.9763L16.4711 7.26372L22.2214 13.014L13.5088 21.7266L7.75851 15.9763Z" fill="#082623"/>
</g>
<path d="M21.0649 29.8921L25.9691 24.988L31.7194 30.7383L26.8152 35.6425L21.0649 29.8921Z" fill="#082623"/>
<path d="M20.2401 11.8849L25.9904 6.13467L34.7029 14.8473L28.9526 20.5975L20.2401 11.8849Z" fill="#082623"/>
<mask id="mask20_221_664" style="mask-type:alpha" maskUnits="userSpaceOnUse" x="3" y="2" width="38" height="38">
<path d="M22.9295 3.07288C22.3026 2.44606 21.2862 2.44605 20.6594 3.07288L3.58551 20.1468C2.95855 20.7736 2.95855 21.7899 3.58551 22.4167L20.6593 39.4907C21.2861 40.1176 22.3025 40.1176 22.9294 39.4908L40.0032 22.4168C40.6302 21.79 40.6302 20.7737 40.0032 20.1469L22.9295 3.07288Z" fill="#151F6D"/>
</mask>
<g mask="url(#mask20_221_664)">
<path d="M28.9532 20.5978L34.7035 14.8475L41.1566 21.3006L35.4062 27.0509L28.9532 20.5978Z" fill="#082623"/>
</g>
<mask id="mask21_221_664" style="mask-type:alpha" maskUnits="userSpaceOnUse" x="3" y="2" width="38" height="38">
<path d="M22.9295 3.07288C22.3026 2.44606 21.2862 2.44605 20.6594 3.07288L3.58551 20.1468C2.95855 20.7736 2.95855 21.7899 3.58551 22.4167L20.6593 39.4907C21.2861 40.1176 22.3025 40.1176 22.9294 39.4908L40.0032 22.4168C40.6302 21.79 40.6302 20.7737 40.0032 20.1469L22.9295 3.07288Z" fill="#151F6D"/>
</mask>
<g mask="url(#mask21_221_664)">
<path d="M7.27427 26.1411L13.0246 20.3909L27.5455 34.9118L21.7952 40.6621L7.27427 26.1411Z" fill="#082623"/>
</g>
<mask id="mask22_221_664" style="mask-type:alpha" maskUnits="userSpaceOnUse" x="3" y="2" width="38" height="38">
<path d="M22.9295 3.07288C22.3026 2.44606 21.2862 2.44605 20.6594 3.07288L3.58551 20.1468C2.95855 20.7736 2.95855 21.7899 3.58551 22.4167L20.6593 39.4907C21.2861 40.1176 22.3025 40.1176 22.9294 39.4908L40.0032 22.4168C40.6302 21.79 40.6302 20.7737 40.0032 20.1469L22.9295 3.07288Z" fill="#151F6D"/>
</mask>
<g mask="url(#mask22_221_664)">
<path d="M15.3421 8.39263L21.7953 1.93954L27.0352 7.17948L20.582 13.6326L15.3421 8.39263Z" fill="#082623"/>
</g>
</g>
</g>
</g>
</g>
</g>
<defs>
<clipPath id="clip0_221_664">
<rect width="190.909" height="42" fill="white" transform="translate(0.63916)"/>
</clipPath>
</defs>
</svg>
