<?xml version="1.0" encoding="UTF-8"?>
<svg id="Calque_1" data-name="Calque 1" xmlns="http://www.w3.org/2000/svg" xmlns:xlink="http://www.w3.org/1999/xlink" viewBox="0 0 877.84 255">
  <defs>
    <style>
      .cls-1 {
        filter: url(#drop-shadow-1);
      }

      .cls-1, .cls-2, .cls-3 {
        stroke-width: 0px;
      }

      .cls-1, .cls-3 {
        fill: #041d3d;
      }

      .cls-2 {
        fill: #f7931e;
      }
    </style>
    <filter id="drop-shadow-1" filterUnits="userSpaceOnUse">
      <feOffset dx="7" dy="0"/>
      <feGaussianBlur result="blur" stdDeviation="0"/>
      <feFlood flood-color="#f7931e" flood-opacity=".75"/>
      <feComposite in2="blur" operator="in"/>
      <feComposite in="SourceGraphic"/>
    </filter>
  </defs>
  <path class="cls-3" d="M0,151.73c0-33.27,22.03-58.98,54.15-58.98,17.68,0,30.53,7.34,38.56,19.5V47.3c0-1.9,1.54-3.44,3.44-3.44h18.14c1.78,0,3.21,1.44,3.21,3.21v157.44c0,1.9-1.54,3.44-3.44,3.44h-16.53c-2.06,0-3.21-1.37-3.21-3.44l-.46-14.92c-8.04,13.08-21.35,21.12-39.71,21.12-32.12,0-54.15-25.48-54.15-58.99ZM58.98,187.99c19.97,0,33.96-14.45,33.96-36.03s-14-36.5-33.96-36.5-34.88,14.69-34.88,36.26,14.69,36.26,34.88,36.26Z"/>
  <path class="cls-3" d="M146.49,56.95c0-7.8,6.19-14.23,14.46-14.23,8.99,0,15.69,8.06,13.95,17.09-1.33,6.9-7.68,11.91-14.7,11.58-7.89-.37-13.72-6.65-13.72-14.44ZM148.33,98.95c0-1.9,1.54-3.45,3.45-3.45h18.35c1.78,0,3.21,1.44,3.21,3.21v105.81c0,1.9-1.54,3.44-3.44,3.44h-18.36c-1.78,0-3.21-1.44-3.21-3.21v-105.8Z"/>
  <path class="cls-3" d="M213.99,243.07c-2.06-1.37-2.52-3.67-1.61-5.74l5.28-9.87c1.15-1.84,2.98-2.52,5.05-1.38,9.64,5.74,20.42,8.49,30.98,8.49,18.59,0,36.72-8.26,36.72-32.59v-15.15c-7.57,11.94-20.42,19.28-38.33,19.28-31.9,0-53.7-23.41-53.7-56.69s21.8-56.69,53.47-56.69c18.36,0,31.21,7.34,38.78,19.73l.46-13.54c0-2.06,1.15-3.45,3.21-3.45h16.75c1.78,0,3.21,1.44,3.21,3.21v103.96c0,38.56-30.07,52.32-58.53,52.32-16.52,0-31.66-4.59-41.77-11.93ZM256.45,183.63c19.51,0,33.28-13.08,33.28-33.96s-13.77-34.42-33.28-34.42-33.96,13.31-33.96,34.2,14.69,34.19,33.96,34.19Z"/>
  <path class="cls-3" d="M343.28,56.95c0-7.8,6.19-14.23,14.46-14.23,8.99,0,15.69,8.06,13.95,17.09-1.33,6.9-7.68,11.91-14.7,11.58-7.89-.37-13.72-6.65-13.72-14.44ZM345.12,98.71c0-1.78,1.44-3.21,3.21-3.21h18.58c1.78,0,3.21,1.44,3.21,3.21v105.81c0,1.9-1.54,3.44-3.44,3.44h-18.36c-1.78,0-3.21-1.44-3.21-3.21v-106.03Z"/>
  <path class="cls-3" d="M409.4,180.41v-65.17h-14.45c-1.78,0-3.21-1.44-3.21-3.21v-13.08c0-1.9,1.54-3.45,3.45-3.45h14.22v-26.39c0-1.9,1.54-3.45,3.45-3.45h18.36c1.77,0,3.2,1.43,3.2,3.2v26.63h18.13c1.9,0,3.45,1.54,3.45,3.45v12.85c0,1.9-1.54,3.45-3.45,3.45h-18.13v62.19c0,7.58,3.67,10.79,10.1,10.79,1.84,0,4.59,0,7.12-.23,2.75-.46,4.13.69,4.13,2.98v12.4c0,4.59-10.1,5.96-16.99,5.96-16.75,0-29.38-8.03-29.38-28.92Z"/>
  <path class="cls-3" d="M473.03,151.73c0-33.27,22.03-58.98,54.15-58.98,18.59,0,31.91,8.26,39.71,21.34l.46-15.15c0-2.06,1.15-3.45,3.21-3.45h16.75c1.78,0,3.21,1.44,3.21,3.21v105.81c0,1.9-1.54,3.44-3.44,3.44h-16.53c-2.06,0-3.21-1.37-3.21-3.44l-.46-14.92c-8.04,13.08-21.35,21.12-39.71,21.12-32.12,0-54.15-25.48-54.15-58.99ZM532.01,187.99c19.97,0,33.96-14.45,33.96-36.03s-14-36.5-33.96-36.5-34.88,14.69-34.88,36.26,14.69,36.26,34.88,36.26Z"/>
  <path class="cls-3" d="M725.85,151.27c0-33.05,22.95-58.52,57.14-58.52s53.24,25.47,53.24,53.47c0,9.87-2.06,14.69-10.56,14.69h-75.73c2.98,17.9,16.3,29.83,38.55,29.83,11.02,0,19.97-2.76,28.92-8.73,1.37-.92,2.76-.68,3.67.69l6.43,8.73c1.37,1.83.92,3.2-.92,5.05-9.88,9.64-24.33,14.23-40.17,14.23-36.72,0-60.58-25.94-60.58-59.44ZM814.2,143.01c-1.37-18.36-13.54-29.38-31.21-29.38s-30.76,10.78-33.28,29.38h64.49Z"/>
  <path class="cls-2" d="M846.4,195.52c-.09-7.6,5.45-14.32,12.92-15.74,9.71-1.86,18.52,5.86,18.52,15.56,0,8.72-7.12,15.6-15.61,15.6s-15.73-6.79-15.83-15.42Z"/>
  <path class="cls-1" d="M790.5,32.96c-.97-.5-2.28-.08-2.69.66l-33.69,53.32c-1.27,1.91-3.83,2.45-5.77,1.22l-17.05-10.93c-1.92-1.23-4.47-.67-5.7,1.24l-45.5,70.8c-.42.66-.42,1.5,0,2.16l33.73,52.39c1.61,2.3.46,4.13-2.06,4.13h-20.19c-1.84,0-2.98-.69-3.91-2.3l-21.5-34.9c-.78-1.26-2.6-1.27-3.39-.02l-51.47,81.92c-.93,1.61-2.3,2.3-4.13,2.3h-19.97c-2.76,0-3.67-1.83-2.06-4.13l63.73-99.39c.42-.66.42-1.51,0-2.17l-32.34-49.65c-1.37-2.29-.46-4.13,2.06-4.13h20.19c1.84,0,2.99.69,3.91,2.3l20.11,32.4c.78,1.25,2.6,1.26,3.38.01l50.19-79.74c1.91-3.04,5.91-3.98,8.98-2.13l16.98,10.26c1.4.85,3.22.44,4.13-.92l22.26-34.97c.6-.94.31-2.19-.64-2.77l-11.88-7.26c-1.56-.95-1.13-3.32.66-3.67l38.13-7.64c1.03-.21,2.04.42,2.32,1.43l9.76,35.97c.3,1.67-1.5,2.93-2.97,2.08l-13.62-7.89Z"/>
</svg>