<svg width="174" height="42" viewBox="0 0 174 42" fill="none" xmlns="http://www.w3.org/2000/svg">
<g clip-path="url(#clip0_221_917)">
<path d="M6.78151 9.93433V20.0974H6.84969C8.25502 18.2281 9.95771 17.3568 12.3328 17.3568C16.6737 17.3568 18.7817 20.2319 18.7817 24.5767V35.0731H12.6983V26.2812C12.6983 24.2774 12.3972 22.2073 9.95771 22.2073C7.55236 22.2073 6.78151 24.2774 6.78151 26.2812V35.0731H0.699951V9.93433H6.78151Z" fill="#082623"/>
<path d="M33.7532 24.0085C33.452 22.3721 31.9482 21.3001 30.3099 21.3001C28.5391 21.3001 27.0693 22.2376 26.7 24.0085H33.7532ZM39.401 27.5199H26.5996C26.5996 29.9897 27.9046 31.3287 30.4122 31.3287C31.7153 31.3287 32.6509 30.8931 33.3195 29.7586H39.168C38.1964 33.8023 34.3555 35.6394 30.4444 35.6394C24.7625 35.6394 20.5181 32.431 20.5181 26.5161C20.5181 20.8001 24.4272 17.355 30.0107 17.355C35.9578 17.355 39.401 21.0331 39.401 26.8836V27.5199Z" fill="#082623"/>
<path d="M41.1714 9.93274H47.2529V35.0714H41.1714V9.93274Z" fill="#082623"/>
<path d="M58.7929 26.717L62.8707 17.9232H69.689L60.7305 35.0713H56.8535L47.8628 17.9232H54.6811L58.7929 26.717Z" fill="#082623"/>
<path d="M81.4224 24.0086C81.1231 22.3722 79.6193 21.3003 77.981 21.3003C76.2101 21.3003 74.7385 22.2378 74.3711 24.0086H81.4224ZM87.0721 27.5201H74.2707C74.2707 29.9898 75.5738 31.3289 78.0814 31.3289C79.3844 31.3289 80.3201 30.8932 80.9886 29.7588H86.8372C85.8694 33.8024 82.0246 35.6395 78.1155 35.6395C72.4354 35.6395 68.1873 32.4312 68.1873 26.5163C68.1873 20.8002 72.1002 17.3551 77.6799 17.3551C83.627 17.3551 87.0721 21.0332 87.0721 26.8837V27.5201Z" fill="#082623"/>
<path d="M96.0422 35.0713H89.9606V22.9404H87.989V17.9232H89.9606V12.7792H96.0422V17.9232H99.4836V22.9404H96.0422V35.0713Z" fill="#082623"/>
<path d="M106.724 35.0713H100.64V17.9232H106.724V35.0713ZM107.087 12.5122C107.087 14.3834 105.555 15.9194 103.68 15.9194C101.811 15.9194 100.271 14.3834 100.271 12.5122C100.271 10.639 101.811 9.10303 103.68 9.10303C105.555 9.10303 107.087 10.639 107.087 12.5122Z" fill="#082623"/>
<path d="M114.777 26.5164C114.777 28.6888 116.212 30.3593 118.686 30.3593C121.157 30.3593 122.597 28.6888 122.597 26.5164C122.597 24.4103 121.157 22.6376 118.686 22.6376C116.212 22.6376 114.777 24.4103 114.777 26.5164ZM128.48 35.0715H122.394V33.1662H122.33C121.258 34.8727 119.156 35.6397 117.15 35.6397C112.068 35.6397 108.492 31.3953 108.492 26.4824C108.492 21.5675 112.002 17.3572 117.084 17.3572C119.053 17.3572 121.125 18.092 122.394 19.5978V17.9254H128.48V35.0715Z" fill="#082623"/>
<path d="M150.151 27.8646L142.344 29.8704L148.41 15.8516L156.245 13.9834L150.151 27.8646Z" fill="#1D3733"/>
<path d="M148.02 2.04712L155.887 0.329234L159.052 7.58838L151.209 9.39388L148.02 2.04712Z" fill="#082623"/>
<path d="M136.549 28.8783L148.019 2.04853L151.208 9.39548L142.343 29.8703L136.549 28.8783Z" fill="#082623"/>
<path d="M142.344 29.8708L150.152 27.865L163.228 30.0511L155.445 32.1133L142.344 29.8708Z" fill="#1D3733"/>
<path d="M158.648 39.515L133.905 35.0718L136.549 28.8771L155.446 32.1126L158.648 39.515Z" fill="#082623"/>
<path d="M151.21 9.39334L159.053 7.58849L172.5 38.4309L164.754 40.6101L151.21 9.39334Z" fill="#19302C"/>
<path d="M148.413 15.8534L151.212 9.3959L164.752 40.6114L158.648 39.516L148.413 15.8534Z" fill="#264742"/>
</g>
<defs>
<clipPath id="clip0_221_917">
<rect width="173.3" height="42" fill="white" transform="translate(0.699707)"/>
</clipPath>
</defs>
</svg>
