<svg width="630" height="640" viewBox="0 0 630 640" fill="none" xmlns="http://www.w3.org/2000/svg">
<g opacity="0.05">
<path d="M275.336 640C274.951 561.328 274.951 482.655 274.951 403.58C298.347 403.58 321.51 403.58 345.422 403.58C345.422 405.499 345.422 407.532 345.422 409.566C345.422 472.478 345.375 535.391 345.523 598.303C345.534 602.719 344.256 604.862 340.196 606.896C319.185 617.422 298.4 628.398 277.399 639.609C276.748 640 276.235 640 275.336 640Z" fill="#061C3D"/>
<path d="M0 285.632C79.0589 285.343 158.118 285.343 237.58 285.343C237.58 308.353 237.58 331.131 237.58 354.657C235.661 354.657 233.627 354.657 231.593 354.657C168.295 354.657 104.997 354.61 41.6986 354.758C37.2819 354.769 35.1388 353.491 33.1047 349.431C22.5789 328.421 11.6022 307.636 0.391374 286.635C0 286.498 0 285.921 0 285.632Z" fill="#061C3D"/>
<path d="M340.753 2.17737C341.483 1.68101 342.214 1.18465 343.028 0.344147C343.625 0 344.138 0 345.037 0C345.422 78.7004 345.422 157.401 345.422 236.462C321.931 236.462 298.761 236.462 274.951 236.462C274.951 234.568 274.951 232.711 274.951 230.854C274.951 167.717 274.926 104.581 275.056 41.4449C275.061 39.1845 276.608 36.9272 277.918 35.1043C278.79 40.6822 279.514 45.8239 279.521 50.9665C279.602 109.244 279.632 167.521 279.465 225.798C279.451 230.771 280.595 232.44 285.827 232.329C302.168 231.983 318.523 232.087 334.87 232.281C339.134 232.331 340.921 231.498 340.91 226.631C340.737 151.813 340.769 76.9953 340.753 2.17737Z" fill="#061C3D"/>
<path d="M413.584 285.343C472.259 285.343 530.358 285.412 588.455 285.214C593.173 285.198 595.269 286.801 597.333 290.825C607.883 311.392 618.804 331.768 629.571 352.224C629.901 352.851 629.966 353.618 630.204 354.506C551.225 354.506 472.416 354.506 393.197 354.506C393.197 331.659 393.197 308.883 393.197 285.343C399.701 285.343 406.354 285.343 413.584 285.343Z" fill="#061C3D"/>
<path d="M340.329 2.24185C340.769 76.9953 340.737 151.813 340.91 226.631C340.921 231.498 339.134 232.331 334.869 232.281C318.523 232.087 302.168 231.983 285.827 232.329C280.595 232.44 279.451 230.771 279.465 225.798C279.632 167.521 279.602 109.244 279.521 50.9665C279.514 45.8239 278.79 40.6822 278.387 35.0289C298.884 23.7806 319.395 13.0435 340.329 2.24185Z" fill="#061C3D"/>
<path d="M134.01 368.52C168.821 368.52 203.054 368.52 237.635 368.52C237.635 392.036 237.635 415.206 237.635 438.989C235.506 438.989 233.453 438.989 231.399 438.989C182.891 438.989 134.381 438.891 85.8739 439.139C80.9925 439.164 78.8321 437.215 76.8955 433.393C69.0709 417.946 61.1216 402.563 53.1572 387.188C50.0723 381.233 46.8249 375.362 43.1504 368.52C73.9485 368.52 103.69 368.52 134.01 368.52Z" fill="#061C3D"/>
<path d="M191.936 79.4428C215.07 67.0998 238.075 55.2363 261.848 42.9772C261.848 108.049 261.848 171.988 261.848 236.376C238.937 236.376 215.774 236.376 191.809 236.376C191.809 184.386 191.809 132.154 191.936 79.4428Z" fill="#061C3D"/>
<path d="M382.399 584.547C374.412 588.671 366.857 592.722 358.486 597.21C358.486 531.895 358.486 467.924 358.486 403.564C381.567 403.564 404.737 403.564 428.602 403.564C428.602 405.56 428.602 407.602 428.602 409.644C428.602 457.377 428.411 505.112 428.821 552.842C428.878 559.519 425.948 562.308 420.972 564.841C408.228 571.327 395.541 577.923 382.399 584.547Z" fill="#061C3D"/>
<path d="M397.41 201.203C432.337 201.139 467.264 201.064 502.19 201.016C517.352 200.995 532.515 201.028 548.221 201.544C555.673 215.737 562.562 229.433 569.497 243.105C573.357 250.715 577.294 258.287 581.473 266.416C579.198 266.639 578.079 266.844 576.96 266.844C518.87 266.86 460.781 266.809 402.691 266.954C398.137 266.965 397.296 265.291 397.331 261.214C397.505 241.212 397.41 221.207 397.41 201.203Z" fill="#061C3D"/>
<path d="M218.342 451.697C225.044 451.697 231.169 451.697 237.636 451.697C237.636 475.202 237.636 498.358 237.636 521.9C235.945 521.99 234.278 522.154 232.611 522.155C197.99 522.17 163.369 522.157 128.749 522.183C125.842 522.185 123.568 522.204 121.82 518.809C111.249 498.268 100.319 477.911 89.5474 457.473C88.7082 455.881 88.1615 454.134 87.168 451.697C131.316 451.697 174.54 451.697 218.342 451.697Z" fill="#061C3D"/>
<path d="M531.414 165.167C535.422 172.819 539.358 180.04 543.664 187.94C492.996 187.94 443.3 187.94 393.195 187.94C393.195 164.917 393.195 141.756 393.195 118.135C394.696 118.041 396.351 117.848 398.005 117.847C432.634 117.83 467.263 117.897 501.891 117.748C505.86 117.731 507.815 118.873 509.634 122.587C516.58 136.778 524.06 150.709 531.414 165.167Z" fill="#061C3D"/>
<path d="M154.805 236.823C138.871 236.823 123.514 236.823 107.763 236.823C107.643 234.869 107.453 233.211 107.453 231.552C107.435 197.324 107.49 163.096 107.365 128.868C107.352 125.244 108.1 123.05 111.638 121.269C128.082 112.991 144.365 104.395 160.675 95.8523C166.291 92.911 171.815 89.7961 177.765 86.5514C177.765 136.938 177.765 186.503 177.765 236.823C170.223 236.823 162.803 236.823 154.805 236.823Z" fill="#061C3D"/>
<path d="M445.93 403.369C465.982 403.314 486.034 403.259 506.622 403.815C507.158 438.49 507.088 472.553 507.245 506.615C507.265 510.952 506.28 513.542 502.072 515.612C491.053 521.034 480.384 527.163 469.496 532.858C462.073 536.742 454.516 540.37 445.93 544.656C445.93 496.731 445.93 450.05 445.93 403.369Z" fill="#061C3D"/>
<path d="M445.426 403.287C445.93 450.05 445.93 496.731 445.93 544.656C454.516 540.37 462.073 536.742 469.497 532.858C480.384 527.163 491.053 521.034 502.073 515.612C506.28 513.542 507.265 510.952 507.245 506.615C507.088 472.553 507.158 438.49 507.158 403.898C508.494 403.369 509.831 403.369 511.551 403.369C511.627 405.04 511.769 406.718 511.77 408.396C511.783 443.019 511.726 477.642 511.861 512.264C511.874 515.736 510.943 517.422 507.704 519.089C485.842 530.343 464.151 541.93 441.803 553.727C441.603 551.841 441.328 550.452 441.327 549.064C441.305 502.13 441.303 455.197 441.326 408.264C441.327 405.812 440.245 402.411 445.426 403.287Z" fill="#061C3D"/>
<path d="M396.906 201.121C397.41 221.207 397.505 241.212 397.331 261.214C397.296 265.291 398.137 266.965 402.691 266.954C460.781 266.809 518.87 266.86 576.96 266.844C578.079 266.844 579.198 266.639 581.473 266.416C577.294 258.287 573.357 250.715 569.497 243.105C562.562 229.433 555.673 215.737 548.756 201.628C549.778 202.005 551.227 202.588 551.776 203.641C562.392 223.974 572.915 244.355 583.415 264.749C584.432 266.725 585.167 268.847 586.115 271.096C522.047 271.096 457.757 271.096 392.789 271.096C392.789 266.974 392.789 262.806 392.789 258.639C392.789 240.934 392.807 223.229 392.769 205.525C392.764 202.941 392.391 200.273 396.906 201.121Z" fill="#061C3D"/>
</g>
</svg>
