<svg width="72" height="24" viewBox="0 0 72 24" fill="none" xmlns="http://www.w3.org/2000/svg">
<path d="M71.2246 23.5756C69.6776 23.603 68.1305 23.603 66.5574 23.603C66.5574 22.8448 66.5574 22.1018 66.5574 21.321C65.7148 21.9578 64.8591 22.49 63.9393 22.9182C63.0004 23.3552 62.0231 23.6763 61.001 23.829C60.3294 23.9294 59.6458 24.0074 58.9688 23.9994C57.9684 23.9877 56.9813 23.8211 56.0134 23.5481C54.7185 23.1828 53.5203 22.6211 52.4165 21.8522C51.3213 21.0892 50.3804 20.175 49.5963 19.0912C48.8174 18.0145 48.2281 16.8492 47.8455 15.5782C47.6042 14.7764 47.416 13.9639 47.3815 13.1229C47.3602 12.6014 47.3108 12.0788 47.3289 11.5586C47.3751 10.2299 47.6456 8.94234 48.118 7.69824C48.5413 6.58336 49.1343 5.56193 49.8615 4.62231C50.5823 3.69094 51.4314 2.88857 52.4008 2.21347C53.3685 1.53952 54.4024 1.00207 55.5234 0.6324C56.2991 0.376577 57.0849 0.168789 57.9034 0.110901C58.4885 0.0695206 59.0761 -0.0202373 59.6587 0.00412494C61.1855 0.067969 62.6652 0.364073 64.0801 0.977731C65.0961 1.41839 66.0223 1.99226 66.82 2.60596C65.7495 3.75168 64.6706 4.90625 63.597 6.05513C61.518 4.69275 59.3472 4.33523 57.0549 5.08879C55.1 5.73144 53.6281 7.02094 52.7481 8.8723C50.7537 13.068 52.9782 17.5671 56.817 18.9632C61.1019 20.5214 65.4227 17.8873 66.4661 13.9591C64.6923 13.9591 62.9217 13.9591 61.1328 13.9591C61.1328 12.3851 61.1328 10.823 61.1328 9.22714C64.4772 9.22714 67.8235 9.22714 71.1972 9.22714C71.2246 14.0008 71.2246 18.7745 71.2246 23.5756Z" fill="#061C3D"/>
<path d="M21.4952 0.476121C22.0275 0.435083 22.5573 0.41791 23.0872 0.414394C23.1515 0.413968 23.2248 0.477806 23.2797 0.527609C23.758 0.961984 24.2307 1.40248 24.7094 1.83632C25.7083 2.7415 26.7107 3.64282 27.71 4.54759C28.1745 4.96826 28.6357 5.39267 29.0975 5.81646C30.0568 6.69695 31.0146 7.57912 31.975 8.45841C32.2157 8.67882 32.4641 8.89094 32.7262 9.12211C32.826 9.04246 32.9344 8.96628 33.031 8.87737C34.0466 7.94309 35.0585 7.0048 36.0753 6.07175C36.6855 5.51175 37.3037 4.96045 37.916 4.40276C38.8212 3.57837 39.7221 2.74936 40.6292 1.92704C41.1563 1.44916 41.6903 0.978879 42.2255 0.509988C42.2847 0.458118 42.3711 0.408945 42.4457 0.407621C42.9502 0.398676 43.455 0.402955 43.9756 0.402955C43.9756 8.11827 43.9756 15.8157 43.9756 23.5289C42.4305 23.5289 40.8879 23.5289 39.3191 23.5289C39.3191 18.8664 39.3191 14.2093 39.3191 9.50144C38.9358 9.83794 38.5875 10.1338 38.2503 10.4419C37.6943 10.95 37.1481 11.4688 36.5931 11.978C35.7053 12.7925 34.8148 13.6042 33.9232 14.4145C33.5817 14.7248 33.2392 15.0345 32.8835 15.3278C32.8253 15.3758 32.6621 15.3789 32.6052 15.3323C32.256 15.0462 31.9192 14.7446 31.5864 14.4394C30.8112 13.7282 30.0422 13.0103 29.2676 12.2984C28.6077 11.6919 27.9455 11.0878 27.2802 10.4871C26.9259 10.1671 26.563 9.85666 26.1704 9.51245C26.1704 14.2058 26.1704 18.8622 26.1704 23.5316C24.6079 23.5316 23.0722 23.5316 21.4929 23.5316C21.4929 15.8605 21.4929 8.18231 21.4952 0.476121Z" fill="#061C3D"/>
<path d="M8.10963 13.9022C6.93277 13.9022 5.78514 13.9022 4.62041 13.9022C4.62041 15.5578 4.62041 17.1976 4.62041 18.8634C8.16997 18.8634 11.7187 18.8634 15.2825 18.8634C15.2825 20.4316 15.2825 21.9741 15.2825 23.5306C10.1882 23.5306 5.10088 23.5306 0 23.5306C0 15.8244 0 8.1272 0 0.416477C5.13578 0.416477 10.2621 0.416477 15.4015 0.416477C15.4015 1.96232 15.4015 3.49793 15.4015 5.0594C11.8215 5.0594 8.23377 5.0594 4.62468 5.0594C4.62468 6.47163 4.62468 7.85837 4.62468 9.27115C7.57716 9.27115 10.5416 9.27115 13.5253 9.27115C13.5253 10.8199 13.5253 12.343 13.5253 13.9022C11.7335 13.9022 9.93617 13.9022 8.10963 13.9022Z" fill="#061C3D"/>
</svg>
