<svg width="48" height="48" viewBox="0 0 48 48" fill="none" xmlns="http://www.w3.org/2000/svg">
<g clip-path="url(#clip0_1504_916)">
<path d="M24 46C36.1506 46 46 36.1506 46 24C46 11.8494 36.1506 2 24 2C11.8494 2 2 11.8494 2 24C2 36.1506 11.8494 46 24 46Z" fill="#FFE8EE" stroke="#FFE8EE" stroke-width="4" stroke-linecap="round" stroke-linejoin="round"/>
<path d="M21.6271 41C21.6067 36.8206 21.6067 32.6411 21.6067 28.4402C22.8496 28.4402 24.0801 28.4402 25.3504 28.4402C25.3504 28.5421 25.3504 28.6502 25.3504 28.7582C25.3504 32.1004 25.3479 35.4427 25.3558 38.7848C25.3564 39.0195 25.2885 39.1333 25.0728 39.2414C23.9566 39.8005 22.8524 40.3837 21.7367 40.9792C21.7022 41 21.6749 41 21.6271 41Z" fill="#D42049"/>
<path d="M7 22.1742C11.2 22.1589 15.4 22.1589 19.6214 22.1589C19.6214 23.3813 19.6214 24.5913 19.6214 25.8412C19.5195 25.8412 19.4115 25.8412 19.3034 25.8412C15.9407 25.8412 12.5779 25.8387 9.21524 25.8466C8.9806 25.8471 8.86675 25.7793 8.75869 25.5636C8.1995 24.4474 7.61637 23.3432 7.02079 22.2275C7 22.2202 7 22.1896 7 22.1742Z" fill="#D42049"/>
<path d="M25.1025 7.11567C25.1413 7.0893 25.1801 7.06293 25.2234 7.01828C25.2551 7 25.2824 7 25.3301 7C25.3506 11.181 25.3506 15.3619 25.3506 19.5621C24.1026 19.5621 22.8717 19.5621 21.6068 19.5621C21.6068 19.4614 21.6068 19.3628 21.6068 19.2641C21.6068 15.91 21.6054 12.5559 21.6124 9.20176C21.6126 9.08168 21.6948 8.96176 21.7644 8.86492C21.8108 9.16125 21.8492 9.4344 21.8496 9.7076C21.8539 12.8036 21.8555 15.8996 21.8466 18.9955C21.8459 19.2597 21.9066 19.3484 22.1846 19.3425C23.0527 19.3241 23.9216 19.3296 24.79 19.3399C25.0165 19.3426 25.1115 19.2983 25.1109 19.0398C25.1017 15.0651 25.1034 11.0904 25.1025 7.11567Z" fill="#D42049"/>
<path d="M28.9715 22.1589C32.0886 22.1589 35.1751 22.1625 38.2615 22.152C38.5121 22.1512 38.6235 22.2363 38.7332 22.4501C39.2936 23.5427 39.8738 24.6252 40.4458 25.7119C40.4633 25.7452 40.4667 25.786 40.4794 25.8332C36.2837 25.8332 32.0969 25.8332 27.8884 25.8332C27.8884 24.6194 27.8884 23.4095 27.8884 22.1589C28.2339 22.1589 28.5874 22.1589 28.9715 22.1589Z" fill="#D42049"/>
<path d="M25.08 7.11908C25.1033 11.0904 25.1017 15.0651 25.1108 19.0398C25.1114 19.2983 25.0165 19.3426 24.79 19.3399C23.9215 19.3296 23.0527 19.3241 22.1846 19.3425C21.9066 19.3484 21.8459 19.2597 21.8466 18.9955C21.8555 15.8996 21.8538 12.8036 21.8496 9.70758C21.8492 9.43438 21.8107 9.16123 21.7893 8.8609C22.8782 8.26333 23.9679 7.69292 25.08 7.11908Z" fill="#D42049"/>
<path d="M14.1192 26.5776C15.9685 26.5776 17.7871 26.5776 19.6242 26.5776C19.6242 27.8269 19.6242 29.0578 19.6242 30.3213C19.5111 30.3213 19.4021 30.3213 19.293 30.3213C16.7159 30.3213 14.1389 30.3161 11.5619 30.3293C11.3026 30.3306 11.1878 30.2271 11.0849 30.024C10.6693 29.2034 10.247 28.3862 9.82385 27.5694C9.65996 27.253 9.48744 26.9411 9.29224 26.5776C10.9284 26.5776 12.5084 26.5776 14.1192 26.5776Z" fill="#D42049"/>
<path d="M17.1965 11.2204C18.4254 10.5647 19.6476 9.9344 20.9105 9.28314C20.9105 12.7401 20.9105 16.1369 20.9105 19.5575C19.6934 19.5575 18.4629 19.5575 17.1897 19.5575C17.1897 16.7955 17.1897 14.0207 17.1965 11.2204Z" fill="#D42049"/>
<path d="M27.3148 38.0541C26.8905 38.2732 26.4891 38.4884 26.0444 38.7268C26.0444 35.257 26.0444 31.8585 26.0444 28.4394C27.2706 28.4394 28.5015 28.4394 29.7693 28.4394C29.7693 28.5454 29.7693 28.6539 29.7693 28.7624C29.7693 31.2982 29.7592 33.8341 29.781 36.3698C29.784 36.7245 29.6283 36.8727 29.364 37.0072C28.687 37.3518 28.013 37.7022 27.3148 38.0541Z" fill="#D42049"/>
<path d="M28.1122 17.689C29.9677 17.6856 31.8231 17.6816 33.6786 17.679C34.4841 17.6779 35.2896 17.6797 36.124 17.7071C36.5199 18.4611 36.8858 19.1887 37.2543 19.915C37.4593 20.3193 37.6685 20.7216 37.8905 21.1534C37.7696 21.1652 37.7102 21.1761 37.6507 21.1761C34.5647 21.177 31.4787 21.1743 28.3927 21.182C28.1508 21.1826 28.1061 21.0936 28.108 20.8771C28.1172 19.8144 28.1122 18.7517 28.1122 17.689Z" fill="#D42049"/>
<path d="M18.5992 30.9964C18.9553 30.9964 19.2807 30.9964 19.6242 30.9964C19.6242 32.2452 19.6242 33.4753 19.6242 34.726C19.5344 34.7308 19.4458 34.7395 19.3573 34.7395C17.5181 34.7403 15.6788 34.7396 13.8396 34.741C13.6852 34.7411 13.5644 34.7421 13.4715 34.5618C12.9099 33.4705 12.3293 32.3891 11.757 31.3033C11.7124 31.2187 11.6834 31.1259 11.6306 30.9964C13.976 30.9964 16.2723 30.9964 18.5992 30.9964Z" fill="#D42049"/>
<path d="M35.2313 15.7745C35.4442 16.181 35.6533 16.5646 35.8821 16.9844C33.1903 16.9844 30.5502 16.9844 27.8884 16.9844C27.8884 15.7613 27.8884 14.5308 27.8884 13.276C27.9682 13.271 28.0561 13.2607 28.144 13.2607C29.9836 13.2597 31.8233 13.2633 33.6629 13.2554C33.8738 13.2545 33.9776 13.3151 34.0742 13.5125C34.4433 14.2664 34.8406 15.0064 35.2313 15.7745Z" fill="#D42049"/>
<path d="M15.2238 19.5813C14.3773 19.5813 13.5615 19.5813 12.7247 19.5813C12.7184 19.4775 12.7083 19.3894 12.7083 19.3013C12.7073 17.4829 12.7103 15.6645 12.7036 13.8461C12.7029 13.6536 12.7426 13.5371 12.9306 13.4424C13.8042 13.0027 14.6692 12.546 15.5357 12.0922C15.834 11.9359 16.1275 11.7705 16.4436 11.5981C16.4436 14.2749 16.4436 16.908 16.4436 19.5813C16.0429 19.5813 15.6487 19.5813 15.2238 19.5813Z" fill="#D42049"/>
<path d="M30.6899 28.429C31.7552 28.4261 32.8205 28.4232 33.9142 28.4527C33.9427 30.2948 33.939 32.1044 33.9473 33.914C33.9484 34.1444 33.896 34.282 33.6725 34.392C33.0871 34.68 32.5203 35.0056 31.9419 35.3081C31.5475 35.5145 31.1461 35.7072 30.6899 35.9349C30.6899 33.3889 30.6899 30.909 30.6899 28.429Z" fill="#D42049"/>
<path d="M30.6632 28.4246C30.69 30.9089 30.69 33.3889 30.69 35.9349C31.1461 35.7072 31.5476 35.5144 31.942 35.3081C32.5204 35.0055 33.0872 34.68 33.6726 34.3919C33.8961 34.2819 33.9484 34.1443 33.9474 33.914C33.939 32.1044 33.9427 30.2948 33.9427 28.4571C34.0137 28.429 34.0847 28.429 34.1761 28.429C34.1801 28.5177 34.1877 28.6069 34.1877 28.6961C34.1884 30.5354 34.1854 32.3748 34.1926 34.2141C34.1933 34.3985 34.1438 34.4881 33.9717 34.5766C32.8103 35.1745 31.658 35.7901 30.4707 36.4168C30.4601 36.3166 30.4455 36.2428 30.4455 36.169C30.4443 33.6757 30.4442 31.1824 30.4454 28.689C30.4454 28.5588 30.3879 28.3781 30.6632 28.4246Z" fill="#D42049"/>
<path d="M28.0855 17.6845C28.1123 18.7516 28.1173 19.8144 28.1081 20.877C28.1062 21.0936 28.1509 21.1825 28.3928 21.1819C31.4788 21.1743 34.5649 21.1769 37.6509 21.1761C37.7103 21.1761 37.7698 21.1652 37.8906 21.1534C37.6686 20.7215 37.4595 20.3193 37.2544 19.9149C36.886 19.1886 36.52 18.4611 36.1525 17.7115C36.2068 17.7315 36.2838 17.7625 36.313 17.8184C36.877 18.8986 37.436 19.9814 37.9938 21.0648C38.0478 21.1698 38.0869 21.2825 38.1373 21.402C34.7336 21.402 31.3182 21.402 27.8668 21.402C27.8668 21.183 27.8668 20.9616 27.8668 20.7402C27.8668 19.7996 27.8677 18.8591 27.8657 17.9185C27.8655 17.7812 27.8456 17.6395 28.0855 17.6845Z" fill="#D42049"/>
</g>
<defs>
<clipPath id="clip0_1504_916">
<rect width="48" height="48" fill="white"/>
</clipPath>
</defs>
</svg>
