<svg width="140" height="42" viewBox="0 0 140 42" fill="none" xmlns="http://www.w3.org/2000/svg">
<g clip-path="url(#clip0_221_912)">
<path d="M35.2328 1.32334C34.6656 0.469228 33.9133 -0.00235972 33.0484 8.87924e-06C31.735 0.00498294 30.233 1.04432 28.6402 3.20235C25.9503 6.85805 22.9797 13.7708 19.5905 21.821C18.2504 19.5087 15.1255 16.1489 10.6672 16.1441C9.56657 16.1441 8.39093 16.3495 7.1469 16.8258C2.38162 18.6494 0.785942 23.0574 0.787599 26.0231C0.787599 31.067 4.60417 35.2412 9.19338 35.3338C9.2426 35.3352 9.29206 35.3352 9.34058 35.3352C12.0712 35.3352 14.0015 33.8421 15.2361 32.3641C16.1287 31.2968 16.6677 30.2326 16.9001 29.7183C18.7523 34.2225 20.7124 37.8703 22.0847 39.598C23.3219 41.1492 24.6485 41.9983 25.9605 42H25.9621C27.2028 42 28.3839 41.2267 29.3868 39.6681C32.1063 35.4532 33.9857 29.0892 35.3445 22.978C36.1451 19.3631 36.6882 14.2969 36.6882 9.85338C36.6882 8.09588 36.603 6.4362 36.4151 5.00249C36.2045 3.41482 35.8027 2.17793 35.2328 1.32334ZM16.1242 29.1837C15.4992 30.4116 13.9274 32.9188 11.499 33.4498C11.2148 33.5128 10.9116 33.5446 10.5948 33.5446C8.41483 33.5429 5.70716 32.0275 5.13094 28.8912C5.05924 28.5037 5.0235 28.1034 5.0235 27.701C5.02658 25.4376 6.17264 23.0964 8.86918 22.2348C9.31028 22.0943 9.74192 22.0273 10.1627 22.0273C12.7369 22.0178 15.0098 24.5816 16.4174 28.5653C16.3774 28.6577 16.2811 28.8801 16.1242 29.1837ZM32.2043 26.8282C30.8568 28.8386 29.1487 29.774 27.6901 29.7731C27.5954 29.7731 27.5012 29.769 27.4066 29.7612C23.8297 29.4758 21.2049 24.6981 20.1786 22.8335C20.8551 21.1864 21.9917 18.5035 23.5536 16.1377C25.1343 13.7391 27.1512 11.6815 29.5278 11.3238C29.7321 11.2918 29.933 11.2776 30.1263 11.2776C31.5126 11.2783 32.604 12.0469 33.3624 13.2166C34.1204 14.3852 34.5309 15.9497 34.5309 17.4888C34.5307 21.7411 33.5489 24.8191 32.2043 26.8282ZM51.2613 22.626L52.2448 22.9505C52.5253 23.0588 52.6973 23.2748 52.6973 23.6417C52.6973 23.8362 52.6549 24.0512 52.569 24.3113L49.7823 31.3991L46.759 21.8908H42.5053C42.4194 22.15 42.471 22.5301 42.5228 22.7329C43.5354 23.082 43.8682 22.9991 44.2264 23.9399L47.8833 34.2722L50.0417 33.6464L53.8003 24.6564C54.1886 23.664 54.5985 22.8428 54.9648 22.4313C54.9887 22.3454 54.9887 21.9768 54.9887 21.8908H51.2845C51.2206 22.1502 51.2206 22.3456 51.2613 22.626ZM79.6729 32.0912L79.5629 27.8128V22.8636C79.5629 22.0199 79.0231 21.6535 78.1828 21.6535C77.1465 21.6535 75.8921 21.9335 74.8359 22.2355V23.1002H76.6271V27.7903L76.5618 31.0331C75.8921 31.3344 75.0101 31.7452 73.7526 31.7452C72.3152 31.7452 72.115 30.6975 72.0928 29.4436V22.8428C72.0928 22.0199 71.6171 21.6535 70.7333 21.6535C69.7183 21.6535 68.4868 21.9126 67.2993 22.2355V23.1002H69.1357V29.8853C69.1357 31.9157 69.3714 33.8842 72.5691 33.8842C74.2528 33.8842 75.4834 32.9354 76.5849 31.8539C76.6074 33.1071 77.2104 33.8404 78.3555 33.8404C79.7796 33.8404 80.8157 33.1734 81.594 32.6957L81.5287 32.0914L79.6729 32.0912ZM93.5674 32.0912L93.4798 27.6612V16.0994C93.4798 15.2348 93.1755 15.0183 92.3574 15.0183C91.342 15.0183 89.7229 15.2348 88.556 15.4741V16.4897H90.5426V21.9126C90.0241 21.8259 89.5063 21.762 88.6852 21.762C85.2962 21.762 82.5954 24.2668 82.5954 28.2439C82.5954 32.7824 84.9283 33.884 87.2604 33.884C88.7283 33.884 89.7868 33.042 90.5204 32.221C90.5204 33.0199 90.8022 33.884 91.9005 33.884C93.499 33.884 94.5797 33.3435 95.5093 32.8269L95.3578 32.0912H93.5674ZM90.5421 27.6387L90.4778 31.2916C89.9394 31.4661 89.2688 31.7444 88.4907 31.7444C86.8515 31.7444 85.7068 30.5135 85.7068 27.791C85.7068 24.6135 86.5282 23.0796 88.7503 23.0796C89.5934 23.0796 90.0906 23.2758 90.5421 23.4257V27.6387ZM102.103 21.6312C98.7993 21.6312 96.1861 24.8296 96.1861 27.9855C96.1861 32.0912 98.3459 33.884 101.909 33.884C105.32 33.884 107.889 30.6864 107.889 27.5527C107.889 23.5124 105.945 21.6312 102.103 21.6312ZM102.253 32.5026C99.9208 32.5026 99.3187 30.1246 99.3187 27.5743C99.3187 25.2417 99.9002 22.9712 101.929 22.9712C104.222 22.9712 104.715 25.2623 104.715 27.9855C104.715 30.2323 104.328 32.5026 102.253 32.5026ZM114.195 31.766L114.152 27.7903V22.6038C114.152 21.8475 113.806 21.6535 113.137 21.6535C112.101 21.6535 110.395 21.8695 109.228 22.1296V23.1227H111.215V27.7903L111.151 31.6151C111.151 32.0912 110.956 32.4579 110.568 32.5884L109.25 32.9989C109.25 33.2795 109.293 33.4093 109.336 33.69H116.03C116.138 33.4093 116.161 33.1504 116.161 32.9337L114.562 32.5453C114.325 32.4811 114.195 32.3288 114.195 31.766ZM139.5 27.2292C139.5 24.16 138.032 21.5893 134.642 21.5893C131.057 21.5893 128.612 24.7154 128.612 28.1307C128.612 31.6438 130.757 33.884 134.664 33.884C136.673 33.884 138.421 33.0429 139.349 31.9396L139.026 31.2061C137.731 31.5073 136.543 31.6502 135.742 31.6502C133.475 31.6502 131.879 30.6864 131.685 27.747H139.5V27.2292ZM131.664 26.5802C131.728 24.0306 132.765 22.8639 134.147 22.8639C135.742 22.8639 136.349 24.3968 136.349 26.5802H131.664ZM112.641 19.081C113.602 19.081 114.377 18.3024 114.377 17.341C114.377 16.3803 113.602 15.6015 112.641 15.6015C111.681 15.6015 110.901 16.3805 110.901 17.341C110.901 18.3024 111.681 19.081 112.641 19.081ZM120.266 24.2244C120.266 23.3823 120.914 22.8411 122.078 22.8411C124.198 22.8411 124.665 24.0084 124.966 25.3267L125.68 25.3907L126.046 22.5176C124.774 21.8679 123.686 21.6109 122.294 21.6109C119.878 21.6109 117.74 23.0571 117.74 25.3064C117.74 29.3465 123.833 29.0651 123.833 31.0755C123.833 32.0687 123.007 32.6315 121.818 32.6315C120.143 32.6315 119.046 31.4645 118.765 29.7792L117.924 29.7577L117.731 32.956C119.024 33.5379 120.255 33.8823 121.777 33.8823C124 33.8823 126.705 32.8269 126.705 29.9952C126.705 26.2564 120.266 26.538 120.266 24.2244ZM65.272 32.0912L65.1217 27.7695V24.9802C65.1217 22.0211 62.6377 21.6312 60.8667 21.6312C59.0114 21.6312 57.1521 22.6035 56.2687 23.2312L56.5931 24.074C57.7153 23.771 58.7731 23.6211 59.5509 23.6211C61.3208 23.6211 62.2073 24.1806 62.2073 25.6498V27.0617L60.3049 27.2777C57.9751 27.5584 55.4258 28.2908 55.4258 31.1338C55.4258 32.6469 56.5503 33.884 58.3628 33.884C60.2396 33.884 61.4718 32.8037 62.2477 31.852C62.3341 33.1069 62.7468 33.8624 64.3233 33.8624C65.1641 33.8624 66.4817 33.3004 67.1502 32.6746L67.065 32.091H65.272V32.0912ZM62.2073 31.2056C61.5146 31.5291 60.7592 31.8108 59.8536 31.8108C58.9454 31.8108 58.385 31.2072 58.385 30.2913C58.385 29.1257 59.5064 28.4881 60.8667 28.2735L62.2073 28.035V31.2056Z" fill="#082623"/>
</g>
<defs>
<clipPath id="clip0_221_912">
<rect width="138.713" height="42" fill="white" transform="translate(0.787598)"/>
</clipPath>
</defs>
</svg>
