<svg width="175" height="42" viewBox="0 0 175 42" fill="none" xmlns="http://www.w3.org/2000/svg">
<g clip-path="url(#clip0_221_914)">
<path d="M21.6697 0C10.0883 0 0.739502 9.34884 0.739502 20.9302C0.739502 25.6744 2.27439 30.1395 5.06508 33.6279L22.5069 10.7442H20.693H18.879C16.9256 10.7442 14.9721 10.8837 13.7162 11.1628C12.879 11.3023 12.1814 11.5814 11.6232 12C10.9256 12.4186 10.0883 13.5349 9.5302 14.5116C9.5302 14.6512 9.39067 14.7907 9.25113 15.0698L7.99532 14.9302L9.66974 8.37209H31.4372L14.1349 31.3953C15.2511 31.2558 15.6697 31.2558 16.6465 31.2558C17.3442 31.2558 18.4604 31.2558 19.8558 31.3953L22.9256 31.5349C24.0418 31.5349 25.0186 31.6744 25.7163 31.6744C27.2511 31.6744 28.3674 31.5349 29.3442 31.2558C30.1814 30.9767 30.879 30.6977 31.5767 30.1395C32.8325 29.3023 33.9488 27.907 34.6465 26.6512C34.6465 26.5116 34.786 26.3721 34.9256 26.093L35.9023 26.3721C35.6232 27.4884 35.4837 27.907 34.9256 29.0233C33.9488 31.1163 32.9721 32.5116 31.4372 33.6279C29.9023 34.7442 28.3674 35.3023 26.4139 35.3023H26.1349C24.7395 35.3023 23.6232 35.1628 20.1349 34.6047C16.6465 34.0465 14.8325 33.907 13.0186 33.907C11.9023 33.907 10.786 34.0465 9.66974 34.186C8.13485 34.4651 7.57671 34.6047 6.18136 35.1628C9.94881 39.3488 15.5302 42 21.6697 42C33.2511 42 42.6 32.6512 42.6 21.0698C42.6 9.34884 33.2511 0 21.6697 0Z" fill="#082623"/>
<path d="M113.205 19.6743C112.508 20.0929 111.671 20.372 110.694 20.5115C110.275 20.5115 109.857 20.651 109.578 20.651C109.438 20.651 109.438 20.651 109.298 20.651V13.1161C109.578 13.1161 109.717 13.1161 109.857 13.1161C110.833 13.1161 111.81 13.2557 112.647 13.3952C113.205 13.5348 113.624 13.8138 114.043 14.0929C114.74 14.651 115.159 15.4882 115.159 16.6045C115.159 17.5813 114.88 18.2789 114.322 18.8371C113.903 19.2557 113.485 19.5348 113.205 19.6743ZM120.88 29.7208C120.182 29.0231 119.485 28.3255 118.508 27.3487C117.95 26.651 117.391 26.0929 116.973 25.6743L113.764 21.9068C114.182 21.7673 114.322 21.7673 114.601 21.6278C115.578 21.2092 116.415 20.7906 117.112 20.2324C117.95 19.5348 118.368 18.8371 118.787 17.8603C118.926 17.3022 119.066 16.8836 119.066 16.3254C119.066 15.0696 118.647 13.9534 117.671 12.9766C116.833 12.1394 115.717 11.4417 114.322 11.1627C113.345 10.8836 112.508 10.8836 110.833 10.7441C110.275 10.7441 109.578 10.7441 108.88 10.7441H103.578C103.996 11.0231 103.996 11.1627 104.275 11.5813C104.415 11.8603 104.554 12.1394 104.694 12.2789C104.833 12.6975 104.833 13.3952 104.833 14.5115V27.9068C104.833 28.8836 104.833 29.4417 104.554 29.8603C104.415 30.1394 104.415 30.2789 104.275 30.558C104.136 30.8371 103.996 30.9766 103.578 31.2557H109.996C109.717 30.9766 109.578 30.8371 109.438 30.558C109.298 30.4185 109.159 30.1394 109.159 29.9999C109.019 29.5813 108.88 29.0231 108.88 28.0464C108.88 27.7673 108.88 27.3487 108.88 27.0696V22.465L112.647 26.9301C112.787 27.2092 113.066 27.4882 113.485 27.9068C113.903 28.465 114.322 28.7441 114.461 29.0231C115.159 29.7208 115.857 30.2789 116.554 30.6975C117.112 30.9766 117.671 31.1161 118.508 31.1161C118.787 31.1161 119.205 31.1161 119.624 31.1161H122.136C121.857 30.8371 121.717 30.6975 121.438 30.558C121.578 30.2789 121.298 29.9999 120.88 29.7208ZM129.531 14.5115C129.531 13.1161 129.531 12.8371 129.81 12.2789C129.81 11.9999 129.81 11.8603 129.95 11.5813C130.229 11.3022 130.368 11.0231 130.647 10.7441H124.229C124.647 11.1627 124.787 11.3022 124.926 11.5813C125.066 11.8603 125.205 11.9999 125.205 12.2789C125.345 12.8371 125.345 13.2557 125.485 14.5115C125.485 15.0696 125.485 15.4882 125.485 15.7673V27.9068C125.485 28.6045 125.345 29.4417 125.205 29.8603C125.066 29.9999 125.066 30.2789 124.926 30.4185C124.787 30.6975 124.647 30.6975 124.368 31.1161H130.787C130.508 30.8371 130.368 30.6975 130.229 30.4185C130.089 30.2789 129.95 29.9999 129.95 29.8603C129.81 29.4417 129.671 28.7441 129.671 28.0464V15.7673L129.531 14.5115ZM149.066 28.1859C147.81 28.7441 146.694 28.8836 145.438 28.8836C143.345 28.8836 141.531 28.1859 140.136 26.651C138.88 25.2557 138.043 23.3022 138.043 21.0696C138.043 18.9766 138.74 16.8836 139.857 15.6278C140.415 15.0696 140.973 14.5115 141.671 14.0929C142.787 13.3952 144.182 13.1161 145.578 13.1161C146.833 13.1161 148.089 13.3952 149.205 13.8138C149.903 14.0929 150.182 14.2324 150.88 14.7906V10.8836C150.322 10.7441 150.182 10.6045 149.624 10.6045C148.508 10.3254 147.252 10.1859 145.996 10.1859C143.764 10.1859 141.95 10.6045 140.136 11.3022C139.159 11.7208 138.182 12.2789 137.345 12.9766C134.833 14.9301 133.438 17.8603 133.438 21.3487C133.438 24.558 134.694 27.4882 137.205 29.3022C139.159 30.8371 141.81 31.6743 144.88 31.6743C146.833 31.6743 148.647 31.3952 150.601 30.6975C150.74 30.6975 150.74 30.6975 150.88 30.558V26.9301C150.322 27.2092 150.182 27.3487 149.903 27.4882C149.903 27.7673 149.485 28.0464 149.066 28.1859ZM173.066 14.5115C173.066 13.6743 173.205 12.9766 173.345 12.4185C173.485 12.1394 173.485 11.8603 173.624 11.7208C173.903 11.4417 174.043 11.1627 174.461 10.8836H167.764C168.182 11.1627 168.322 11.3022 168.461 11.7208C168.601 11.9999 168.74 12.1394 168.74 12.4185C168.88 12.8371 169.019 13.5348 169.019 14.5115V19.3952H159.81V15.6278C159.81 14.5115 159.81 13.8138 159.81 13.2557C159.81 12.9766 159.95 12.6975 159.95 12.4185C160.089 11.9999 160.508 11.3022 160.787 11.0231C160.787 11.0231 160.926 10.8836 161.066 10.7441H154.508C154.926 11.1627 155.066 11.3022 155.205 11.5813C155.345 11.7208 155.485 11.9999 155.624 12.2789C155.764 12.8371 155.764 13.1161 155.903 14.372V15.6278V26.7906C155.903 27.9068 155.903 28.465 155.764 28.8836C155.764 29.1627 155.624 29.4417 155.624 29.7208C155.485 30.1394 155.205 30.558 154.787 30.8371C154.787 30.8371 154.647 30.9766 154.508 30.9766H160.926C160.647 30.6975 160.508 30.558 160.368 30.2789C160.229 30.1394 160.089 29.8603 160.089 29.5813C159.95 29.0231 159.81 28.6045 159.81 27.7673C159.81 27.3487 159.81 26.9301 159.81 26.5115V21.6278H169.019V26.651C169.019 27.7673 169.019 28.1859 168.88 28.7441C168.88 29.0231 168.74 29.3022 168.601 29.5813C168.461 29.9999 168.182 30.2789 167.903 30.6975C167.903 30.6975 167.764 30.8371 167.624 30.9766H174.182C173.903 30.6975 173.764 30.558 173.624 30.2789C173.485 29.9999 173.345 29.8603 173.205 29.5813C173.066 29.1627 172.926 28.7441 172.926 27.7673C172.926 27.2092 172.926 26.7906 172.926 26.651V15.4882L173.066 14.5115ZM72.4612 28.3255C71.624 28.465 70.5077 28.6045 69.2519 28.6045C68.8333 28.6045 68.2752 28.6045 67.5775 28.6045H64.5078L76.9264 10.7441H60.8798L58.9264 15.0696C59.624 14.7906 59.9031 14.651 60.4612 14.372C61.438 13.9534 62.4147 13.6743 63.3915 13.5348C64.2287 13.3952 65.0659 13.2557 66.3217 13.2557C66.8798 13.2557 67.438 13.2557 67.8566 13.2557H70.2287L57.531 31.1161H75.1124L77.2054 26.5115C76.5078 26.9301 76.2287 27.0696 75.6705 27.3487C74.6938 27.7673 73.5775 28.0464 72.4612 28.3255ZM94.7868 11.5813C94.9264 11.8603 95.0659 11.9999 95.0659 12.2789C95.2054 12.8371 95.2054 13.2557 95.2054 14.372V22.1859C95.2054 23.8603 95.2054 24.8371 95.0659 25.6743C94.9264 26.2324 94.7868 26.7906 94.5078 27.2092C93.9496 28.0464 93.1124 28.6045 91.9961 28.8836C91.5775 29.0231 91.0194 29.0231 90.6008 29.0231C88.7868 29.0231 87.3915 28.3255 86.5543 27.3487C85.9961 26.5115 85.8566 25.6743 85.8566 23.5813V21.9068V15.7673C85.8566 14.5115 85.8566 13.9534 85.8566 13.3952C85.8566 12.9766 85.9961 12.6975 85.9961 12.4185C86.1357 11.9999 86.4147 11.3022 86.8333 10.8836L86.9729 10.7441H80.4147C80.8333 11.0231 80.9729 11.3022 81.2519 11.5813C81.3915 11.8603 81.531 11.9999 81.531 12.2789C81.6705 12.558 81.6705 12.8371 81.6705 13.2557C81.6705 13.3952 81.6705 13.8138 81.6705 14.5115V15.6278V21.4882C81.6705 23.7208 81.6705 24.1394 81.8101 25.1161C81.9496 26.651 82.3682 27.7673 83.2054 28.8836C84.7403 30.8371 87.2519 31.8138 90.4613 31.8138C91.9961 31.8138 93.3915 31.5348 94.5078 31.1161C95.624 30.6975 96.7403 29.9999 97.5775 29.0231C98.5543 27.9068 99.1124 26.651 99.2519 25.1161C99.3915 24.1394 99.3915 23.0231 99.3915 21.4882V15.6278V14.5115V14.2324C99.3915 13.3952 99.3915 12.8371 99.531 12.4185C99.6706 12.1394 99.6705 11.8603 99.9496 11.5813C100.229 11.3022 100.368 11.0231 100.787 10.7441H94.2287C94.5078 11.0231 94.6473 11.1627 94.7868 11.5813Z" fill="#082623"/>
</g>
<defs>
<clipPath id="clip0_221_914">
<rect width="173.721" height="42" fill="white" transform="translate(0.739502)"/>
</clipPath>
</defs>
</svg>
